<svg width="829" height="308" viewBox="0 0 829 308" fill="none" xmlns="http://www.w3.org/2000/svg">
<path d="M63.385 77.21H55.9191C55.7828 76.2441 55.5044 75.3861 55.0839 74.6361C54.6634 73.8747 54.1237 73.227 53.4646 72.6929C52.8055 72.1588 52.0441 71.7497 51.1805 71.4656C50.3282 71.1816 49.4021 71.0395 48.4021 71.0395C46.5953 71.0395 45.0214 71.4884 43.6805 72.3861C42.3396 73.2725 41.2998 74.5679 40.5612 76.2725C39.8225 77.9656 39.4532 80.0225 39.4532 82.4429C39.4532 84.9316 39.8225 87.0225 40.5612 88.7156C41.3112 90.4088 42.3566 91.6872 43.6975 92.5509C45.0384 93.4145 46.5896 93.8463 48.3509 93.8463C49.3396 93.8463 50.2544 93.7156 51.0953 93.4543C51.9475 93.1929 52.7032 92.8122 53.3623 92.3122C54.0214 91.8009 54.5669 91.1816 54.9987 90.4543C55.4419 89.727 55.7487 88.8975 55.9191 87.9656L63.385 87.9997C63.1919 89.602 62.7089 91.1475 61.9362 92.6361C61.1748 94.1134 60.1464 95.4372 58.8509 96.6077C57.5669 97.7668 56.0328 98.6872 54.2487 99.3691C52.4759 100.04 50.4703 100.375 48.2316 100.375C45.118 100.375 42.3339 99.6702 39.8794 98.2611C37.4362 96.852 35.5044 94.8122 34.0839 92.1418C32.6748 89.4713 31.9703 86.2384 31.9703 82.4429C31.9703 78.6361 32.6862 75.3975 34.118 72.727C35.5498 70.0566 37.493 68.0225 39.9475 66.6247C42.4021 65.2156 45.1634 64.5111 48.2316 64.5111C50.2544 64.5111 52.1294 64.7952 53.8566 65.3634C55.5953 65.9316 57.135 66.7611 58.4759 67.852C59.8169 68.9316 60.9078 70.2554 61.7487 71.8236C62.6009 73.3918 63.1464 75.1872 63.385 77.21ZM80.3708 100.409C77.7231 100.409 75.4333 99.8463 73.5015 98.7213C71.5811 97.585 70.0981 96.0054 69.0526 93.9827C68.0072 91.9486 67.4845 89.5906 67.4845 86.9088C67.4845 84.2043 68.0072 81.8406 69.0526 79.8179C70.0981 77.7838 71.5811 76.2043 73.5015 75.0793C75.4333 73.9429 77.7231 73.3747 80.3708 73.3747C83.0186 73.3747 85.3026 73.9429 87.2231 75.0793C89.1549 76.2043 90.6436 77.7838 91.689 79.8179C92.7345 81.8406 93.2572 84.2043 93.2572 86.9088C93.2572 89.5906 92.7345 91.9486 91.689 93.9827C90.6436 96.0054 89.1549 97.585 87.2231 98.7213C85.3026 99.8463 83.0186 100.409 80.3708 100.409ZM80.4049 94.7838C81.6095 94.7838 82.6151 94.4429 83.422 93.7611C84.2288 93.0679 84.8367 92.1247 85.2458 90.9316C85.6663 89.7384 85.8765 88.3804 85.8765 86.8577C85.8765 85.335 85.6663 83.977 85.2458 82.7838C84.8367 81.5906 84.2288 80.6475 83.422 79.9543C82.6151 79.2611 81.6095 78.9145 80.4049 78.9145C79.189 78.9145 78.1663 79.2611 77.3367 79.9543C76.5186 80.6475 75.8992 81.5906 75.4788 82.7838C75.0697 83.977 74.8651 85.335 74.8651 86.8577C74.8651 88.3804 75.0697 89.7384 75.4788 90.9316C75.8992 92.1247 76.5186 93.0679 77.3367 93.7611C78.1663 94.4429 79.189 94.7838 80.4049 94.7838ZM105.24 64.9884V99.8975H97.9788V64.9884H105.24ZM118.318 64.9884V99.8975H111.057V64.9884H118.318ZM131.601 100.392C129.93 100.392 128.442 100.102 127.135 99.5225C125.828 98.9316 124.794 98.0622 124.033 96.9145C123.283 95.7554 122.908 94.3122 122.908 92.585C122.908 91.1304 123.175 89.9088 123.709 88.9202C124.243 87.9316 124.97 87.1361 125.891 86.5338C126.811 85.9316 127.857 85.477 129.027 85.1702C130.209 84.8634 131.448 84.6475 132.743 84.5225C134.266 84.3634 135.493 84.2156 136.425 84.0793C137.357 83.9316 138.033 83.7156 138.453 83.4316C138.874 83.1475 139.084 82.727 139.084 82.1702V82.0679C139.084 80.9884 138.743 80.1531 138.061 79.5622C137.391 78.9713 136.436 78.6759 135.198 78.6759C133.891 78.6759 132.851 78.9656 132.078 79.5452C131.305 80.1134 130.794 80.8293 130.544 81.6929L123.828 81.1475C124.169 79.5566 124.84 78.1816 125.84 77.0225C126.84 75.852 128.129 74.9543 129.709 74.3293C131.3 73.6929 133.141 73.3747 135.232 73.3747C136.686 73.3747 138.078 73.5452 139.408 73.8861C140.749 74.227 141.936 74.7554 142.97 75.4713C144.016 76.1872 144.84 77.1077 145.442 78.2327C146.044 79.3463 146.345 80.6816 146.345 82.2384V99.8975H139.459V96.2668H139.254C138.834 97.085 138.271 97.8066 137.567 98.4316C136.862 99.0452 136.016 99.5281 135.027 99.8804C134.038 100.221 132.896 100.392 131.601 100.392ZM133.68 95.3804C134.749 95.3804 135.692 95.1702 136.51 94.7497C137.328 94.3179 137.97 93.7384 138.436 93.0111C138.902 92.2838 139.135 91.46 139.135 90.5395V87.7611C138.908 87.9088 138.595 88.0452 138.198 88.1702C137.811 88.2838 137.374 88.3918 136.885 88.4941C136.396 88.585 135.908 88.6702 135.419 88.7497C134.93 88.8179 134.487 88.8804 134.09 88.9372C133.237 89.0622 132.493 89.2611 131.857 89.5338C131.22 89.8066 130.726 90.1759 130.374 90.6418C130.021 91.0963 129.845 91.6645 129.845 92.3463C129.845 93.335 130.203 94.0906 130.919 94.6134C131.646 95.1247 132.567 95.3804 133.68 95.3804ZM152.115 99.8975V64.9884H159.377V78.1134H159.598C159.916 77.4088 160.377 76.6929 160.979 75.9656C161.592 75.227 162.388 74.6134 163.365 74.1247C164.354 73.6247 165.581 73.3747 167.047 73.3747C168.956 73.3747 170.717 73.8747 172.331 74.8747C173.945 75.8634 175.234 77.3577 176.2 79.3577C177.166 81.3463 177.649 83.8406 177.649 86.8406C177.649 89.7611 177.178 92.227 176.234 94.2384C175.303 96.2384 174.03 97.7554 172.416 98.7895C170.814 99.8122 169.019 100.324 167.03 100.324C165.621 100.324 164.422 100.091 163.433 99.6247C162.456 99.1588 161.655 98.5736 161.03 97.8691C160.405 97.1531 159.928 96.4316 159.598 95.7043H159.274V99.8975H152.115ZM159.223 86.8066C159.223 88.3634 159.439 89.7213 159.871 90.8804C160.303 92.0395 160.928 92.9429 161.746 93.5906C162.564 94.227 163.558 94.5452 164.729 94.5452C165.911 94.5452 166.911 94.2213 167.729 93.5736C168.547 92.9145 169.166 92.0054 169.587 90.8463C170.019 89.6759 170.234 88.3293 170.234 86.8066C170.234 85.2952 170.024 83.9656 169.604 82.8179C169.183 81.6702 168.564 80.7725 167.746 80.1247C166.928 79.477 165.922 79.1531 164.729 79.1531C163.547 79.1531 162.547 79.4656 161.729 80.0906C160.922 80.7156 160.303 81.602 159.871 82.7497C159.439 83.8975 159.223 85.2497 159.223 86.8066ZM194.324 100.409C191.676 100.409 189.386 99.8463 187.455 98.7213C185.534 97.585 184.051 96.0054 183.006 93.9827C181.96 91.9486 181.438 89.5906 181.438 86.9088C181.438 84.2043 181.96 81.8406 183.006 79.8179C184.051 77.7838 185.534 76.2043 187.455 75.0793C189.386 73.9429 191.676 73.3747 194.324 73.3747C196.972 73.3747 199.256 73.9429 201.176 75.0793C203.108 76.2043 204.597 77.7838 205.642 79.8179C206.688 81.8406 207.21 84.2043 207.21 86.9088C207.21 89.5906 206.688 91.9486 205.642 93.9827C204.597 96.0054 203.108 97.585 201.176 98.7213C199.256 99.8463 196.972 100.409 194.324 100.409ZM194.358 94.7838C195.563 94.7838 196.568 94.4429 197.375 93.7611C198.182 93.0679 198.79 92.1247 199.199 90.9316C199.619 89.7384 199.83 88.3804 199.83 86.8577C199.83 85.335 199.619 83.977 199.199 82.7838C198.79 81.5906 198.182 80.6475 197.375 79.9543C196.568 79.2611 195.563 78.9145 194.358 78.9145C193.142 78.9145 192.119 79.2611 191.29 79.9543C190.472 80.6475 189.852 81.5906 189.432 82.7838C189.023 83.977 188.818 85.335 188.818 86.8577C188.818 88.3804 189.023 89.7384 189.432 90.9316C189.852 92.1247 190.472 93.0679 191.29 93.7611C192.119 94.4429 193.142 94.7838 194.358 94.7838ZM211.932 99.8975V73.7156H218.972V78.2838H219.244C219.722 76.6588 220.523 75.4316 221.648 74.602C222.773 73.7611 224.068 73.3406 225.534 73.3406C225.898 73.3406 226.29 73.3634 226.71 73.4088C227.131 73.4543 227.5 73.5168 227.818 73.5963V80.0395C227.477 79.9372 227.006 79.8463 226.403 79.7668C225.801 79.6872 225.25 79.6475 224.75 79.6475C223.682 79.6475 222.727 79.8804 221.886 80.3463C221.057 80.8009 220.398 81.4372 219.909 82.2554C219.432 83.0736 219.193 84.0168 219.193 85.085V99.8975H211.932ZM238.288 100.392C236.618 100.392 235.129 100.102 233.823 99.5225C232.516 98.9316 231.482 98.0622 230.72 96.9145C229.97 95.7554 229.595 94.3122 229.595 92.585C229.595 91.1304 229.862 89.9088 230.396 88.9202C230.93 87.9316 231.658 87.1361 232.578 86.5338C233.499 85.9316 234.544 85.477 235.715 85.1702C236.896 84.8634 238.135 84.6475 239.43 84.5225C240.953 84.3634 242.18 84.2156 243.112 84.0793C244.044 83.9316 244.72 83.7156 245.141 83.4316C245.561 83.1475 245.771 82.727 245.771 82.1702V82.0679C245.771 80.9884 245.43 80.1531 244.749 79.5622C244.078 78.9713 243.124 78.6759 241.885 78.6759C240.578 78.6759 239.538 78.9656 238.766 79.5452C237.993 80.1134 237.482 80.8293 237.232 81.6929L230.516 81.1475C230.857 79.5566 231.527 78.1816 232.527 77.0225C233.527 75.852 234.817 74.9543 236.396 74.3293C237.987 73.6929 239.828 73.3747 241.919 73.3747C243.374 73.3747 244.766 73.5452 246.095 73.8861C247.436 74.227 248.624 74.7554 249.658 75.4713C250.703 76.1872 251.527 77.1077 252.129 78.2327C252.732 79.3463 253.033 80.6816 253.033 82.2384V99.8975H246.146V96.2668H245.942C245.521 97.085 244.959 97.8066 244.254 98.4316C243.55 99.0452 242.703 99.5281 241.715 99.8804C240.726 100.221 239.584 100.392 238.288 100.392ZM240.368 95.3804C241.436 95.3804 242.379 95.1702 243.198 94.7497C244.016 94.3179 244.658 93.7384 245.124 93.0111C245.59 92.2838 245.823 91.46 245.823 90.5395V87.7611C245.595 87.9088 245.283 88.0452 244.885 88.1702C244.499 88.2838 244.061 88.3918 243.573 88.4941C243.084 88.585 242.595 88.6702 242.107 88.7497C241.618 88.8179 241.175 88.8804 240.777 88.9372C239.925 89.0622 239.18 89.2611 238.544 89.5338C237.908 89.8066 237.413 90.1759 237.061 90.6418C236.709 91.0963 236.533 91.6645 236.533 92.3463C236.533 93.335 236.891 94.0906 237.607 94.6134C238.334 95.1247 239.254 95.3804 240.368 95.3804ZM272.592 73.7156V79.1702H256.825V73.7156H272.592ZM260.405 67.4429H267.666V91.852C267.666 92.5225 267.769 93.0452 267.973 93.4202C268.178 93.7838 268.462 94.0395 268.825 94.1872C269.2 94.335 269.632 94.4088 270.121 94.4088C270.462 94.4088 270.803 94.3804 271.144 94.3236C271.484 94.2554 271.746 94.2043 271.928 94.1702L273.07 99.5736C272.706 99.6872 272.195 99.8179 271.536 99.9656C270.877 100.125 270.075 100.221 269.132 100.255C267.382 100.324 265.848 100.091 264.53 99.5566C263.223 99.0225 262.206 98.1929 261.479 97.0679C260.752 95.9429 260.394 94.5225 260.405 92.8066V67.4429ZM277.323 99.8975V73.7156H284.584V99.8975H277.323ZM280.97 70.3406C279.891 70.3406 278.965 69.9827 278.192 69.2668C277.43 68.5395 277.05 67.6702 277.05 66.6588C277.05 65.6588 277.43 64.8009 278.192 64.085C278.965 63.3577 279.891 62.9941 280.97 62.9941C282.05 62.9941 282.97 63.3577 283.732 64.085C284.504 64.8009 284.891 65.6588 284.891 66.6588C284.891 67.6702 284.504 68.5395 283.732 69.2668C282.97 69.9827 282.05 70.3406 280.97 70.3406ZM302.23 100.409C299.582 100.409 297.293 99.8463 295.361 98.7213C293.44 97.585 291.957 96.0054 290.912 93.9827C289.867 91.9486 289.344 89.5906 289.344 86.9088C289.344 84.2043 289.867 81.8406 290.912 79.8179C291.957 77.7838 293.44 76.2043 295.361 75.0793C297.293 73.9429 299.582 73.3747 302.23 73.3747C304.878 73.3747 307.162 73.9429 309.082 75.0793C311.014 76.2043 312.503 77.7838 313.548 79.8179C314.594 81.8406 315.117 84.2043 315.117 86.9088C315.117 89.5906 314.594 91.9486 313.548 93.9827C312.503 96.0054 311.014 97.585 309.082 98.7213C307.162 99.8463 304.878 100.409 302.23 100.409ZM302.264 94.7838C303.469 94.7838 304.475 94.4429 305.281 93.7611C306.088 93.0679 306.696 92.1247 307.105 90.9316C307.526 89.7384 307.736 88.3804 307.736 86.8577C307.736 85.335 307.526 83.977 307.105 82.7838C306.696 81.5906 306.088 80.6475 305.281 79.9543C304.475 79.2611 303.469 78.9145 302.264 78.9145C301.048 78.9145 300.026 79.2611 299.196 79.9543C298.378 80.6475 297.759 81.5906 297.338 82.7838C296.929 83.977 296.725 85.335 296.725 86.8577C296.725 88.3804 296.929 89.7384 297.338 90.9316C297.759 92.1247 298.378 93.0679 299.196 93.7611C300.026 94.4429 301.048 94.7838 302.264 94.7838ZM327.1 84.7611V99.8975H319.838V73.7156H326.759V78.335H327.065C327.645 76.8122 328.617 75.6077 329.98 74.7213C331.344 73.8236 332.997 73.3747 334.94 73.3747C336.759 73.3747 338.344 73.7725 339.696 74.5679C341.048 75.3634 342.1 76.4997 342.85 77.977C343.6 79.4429 343.975 81.1929 343.975 83.227V99.8975H336.713V84.5225C336.725 82.9202 336.315 81.6702 335.486 80.7725C334.656 79.8634 333.514 79.4088 332.06 79.4088C331.082 79.4088 330.219 79.6191 329.469 80.0395C328.73 80.46 328.151 81.0736 327.73 81.8804C327.321 82.6759 327.111 83.6361 327.1 84.7611Z" fill="black"/>
<path d="M229.914 10.7469C219.003 6.65529 206.563 3.18363 181.058 1.45815C162.411 0.196653 132.026 1.77846 111.279 3.32314C80.1401 5.64147 62.6032 10.7366 49.879 12.7979C32.4236 15.6256 20.8916 20.0253 14.8524 25.5324C6.38046 33.2578 3.30603 45.1535 1.57539 52.7374C0.869034 55.8328 0.53701 67.1303 2.24184 85.1809C4.78609 112.119 20.1477 120.931 35.3982 132.782C42.6141 138.389 56.4141 142.546 65.1346 145.697C73.8551 148.849 77.9467 149.531 97.9552 150.052C117.964 150.574 153.765 150.915 173.231 150.75C198.625 150.534 207.814 147.144 228.7 145.594C243.758 144.477 267.999 145.067 284.391 144.556C318.212 143.5 323.566 139.219 333.708 137.499C346.587 135.314 352.497 131.986 358.185 127.693C364.332 123.054 370.744 117.893 374.386 112.024C379.137 104.369 374.236 89.9958 370.449 83.6155C364.471 73.5431 357.022 64.4956 349.294 58.818C341.953 53.4256 329.177 49.3484 302.814 41.9763C283.788 36.6558 252.583 30.8536 222.79 26.8343C192.997 22.815 165.379 21.4512 135.637 24.4992C105.896 27.5472 74.8677 35.0485 54.6215 40.4471C34.3753 45.8458 25.8512 48.9145 17.0687 52.0762" stroke="#307FFF" stroke-width="2" stroke-linecap="round"/>
<path d="M485.416 150.96V116.051H499.189C501.836 116.051 504.092 116.557 505.956 117.568C507.819 118.568 509.24 119.96 510.217 121.745C511.206 123.517 511.7 125.563 511.7 127.881C511.7 130.199 511.2 132.245 510.2 134.017C509.2 135.79 507.751 137.171 505.853 138.159C503.967 139.148 501.683 139.642 499.001 139.642H490.223V133.727H497.808C499.228 133.727 500.399 133.483 501.319 132.995C502.251 132.495 502.944 131.807 503.399 130.932C503.865 130.046 504.098 129.029 504.098 127.881C504.098 126.722 503.865 125.71 503.399 124.847C502.944 123.972 502.251 123.296 501.319 122.818C500.388 122.33 499.206 122.085 497.774 122.085H492.797V150.96H485.416ZM523.12 151.455C521.45 151.455 519.961 151.165 518.655 150.585C517.348 149.995 516.314 149.125 515.552 147.977C514.802 146.818 514.427 145.375 514.427 143.648C514.427 142.193 514.694 140.972 515.228 139.983C515.763 138.995 516.49 138.199 517.41 137.597C518.331 136.995 519.376 136.54 520.547 136.233C521.728 135.926 522.967 135.71 524.263 135.585C525.785 135.426 527.013 135.279 527.944 135.142C528.876 134.995 529.552 134.779 529.973 134.495C530.393 134.21 530.603 133.79 530.603 133.233V133.131C530.603 132.051 530.263 131.216 529.581 130.625C528.91 130.034 527.956 129.739 526.717 129.739C525.41 129.739 524.37 130.029 523.598 130.608C522.825 131.176 522.314 131.892 522.064 132.756L515.348 132.21C515.689 130.62 516.359 129.245 517.359 128.085C518.359 126.915 519.649 126.017 521.228 125.392C522.819 124.756 524.66 124.438 526.751 124.438C528.206 124.438 529.598 124.608 530.927 124.949C532.268 125.29 533.456 125.818 534.49 126.534C535.535 127.25 536.359 128.171 536.961 129.296C537.564 130.409 537.865 131.745 537.865 133.301V150.96H530.978V147.33H530.774C530.353 148.148 529.791 148.87 529.086 149.495C528.382 150.108 527.535 150.591 526.547 150.943C525.558 151.284 524.416 151.455 523.12 151.455ZM525.2 146.443C526.268 146.443 527.211 146.233 528.03 145.813C528.848 145.381 529.49 144.801 529.956 144.074C530.422 143.347 530.655 142.523 530.655 141.602V138.824C530.427 138.972 530.115 139.108 529.717 139.233C529.331 139.347 528.893 139.455 528.405 139.557C527.916 139.648 527.427 139.733 526.939 139.813C526.45 139.881 526.007 139.943 525.609 140C524.757 140.125 524.013 140.324 523.376 140.597C522.74 140.87 522.245 141.239 521.893 141.705C521.541 142.159 521.365 142.727 521.365 143.409C521.365 144.398 521.723 145.154 522.439 145.676C523.166 146.188 524.086 146.443 525.2 146.443ZM543.498 150.96V124.779H550.538V129.347H550.811C551.288 127.722 552.089 126.495 553.214 125.665C554.339 124.824 555.635 124.404 557.101 124.404C557.464 124.404 557.856 124.426 558.277 124.472C558.697 124.517 559.066 124.58 559.385 124.659V131.102C559.044 131 558.572 130.909 557.97 130.83C557.368 130.75 556.816 130.71 556.316 130.71C555.248 130.71 554.294 130.943 553.453 131.409C552.623 131.864 551.964 132.5 551.476 133.318C550.998 134.137 550.76 135.08 550.76 136.148V150.96H543.498ZM578.378 124.779V130.233H562.611V124.779H578.378ZM566.19 118.506H573.451V142.915C573.451 143.585 573.554 144.108 573.758 144.483C573.963 144.847 574.247 145.102 574.611 145.25C574.986 145.398 575.417 145.472 575.906 145.472C576.247 145.472 576.588 145.443 576.929 145.387C577.27 145.318 577.531 145.267 577.713 145.233L578.855 150.637C578.491 150.75 577.98 150.881 577.321 151.029C576.662 151.188 575.861 151.284 574.917 151.318C573.167 151.387 571.633 151.154 570.315 150.62C569.008 150.085 567.991 149.256 567.264 148.131C566.537 147.006 566.179 145.585 566.19 143.87V118.506ZM590.369 135.824V150.96H583.108V124.779H590.028V129.398H590.335C590.915 127.875 591.886 126.671 593.25 125.784C594.613 124.887 596.267 124.438 598.21 124.438C600.028 124.438 601.613 124.835 602.966 125.631C604.318 126.426 605.369 127.563 606.119 129.04C606.869 130.506 607.244 132.256 607.244 134.29V150.96H599.983V135.585C599.994 133.983 599.585 132.733 598.755 131.835C597.926 130.926 596.784 130.472 595.329 130.472C594.352 130.472 593.488 130.682 592.738 131.102C592 131.523 591.42 132.137 591 132.943C590.591 133.739 590.38 134.699 590.369 135.824ZM624.899 151.472C622.206 151.472 619.888 150.926 617.944 149.835C616.013 148.733 614.524 147.176 613.478 145.165C612.433 143.142 611.91 140.75 611.91 137.989C611.91 135.296 612.433 132.932 613.478 130.898C614.524 128.864 615.995 127.279 617.893 126.142C619.802 125.006 622.041 124.438 624.609 124.438C626.336 124.438 627.944 124.716 629.433 125.273C630.933 125.818 632.24 126.642 633.353 127.745C634.478 128.847 635.353 130.233 635.978 131.904C636.603 133.563 636.916 135.506 636.916 137.733V139.727H614.808V135.227H630.081C630.081 134.182 629.853 133.256 629.399 132.449C628.944 131.642 628.314 131.012 627.507 130.557C626.711 130.091 625.785 129.858 624.728 129.858C623.626 129.858 622.649 130.114 621.797 130.625C620.956 131.125 620.297 131.801 619.819 132.654C619.342 133.495 619.098 134.432 619.086 135.466V139.745C619.086 141.04 619.325 142.159 619.802 143.102C620.291 144.046 620.978 144.773 621.865 145.284C622.751 145.796 623.802 146.051 625.018 146.051C625.825 146.051 626.564 145.938 627.234 145.71C627.905 145.483 628.478 145.142 628.956 144.688C629.433 144.233 629.797 143.676 630.047 143.017L636.763 143.46C636.422 145.074 635.723 146.483 634.666 147.688C633.62 148.881 632.268 149.813 630.609 150.483C628.961 151.142 627.058 151.472 624.899 151.472ZM641.655 150.96V124.779H648.694V129.347H648.967C649.444 127.722 650.245 126.495 651.37 125.665C652.495 124.824 653.791 124.404 655.257 124.404C655.62 124.404 656.013 124.426 656.433 124.472C656.853 124.517 657.223 124.58 657.541 124.659V131.102C657.2 131 656.728 130.909 656.126 130.83C655.524 130.75 654.973 130.71 654.473 130.71C653.405 130.71 652.45 130.943 651.609 131.409C650.78 131.864 650.12 132.5 649.632 133.318C649.155 134.137 648.916 135.08 648.916 136.148V150.96H641.655ZM683.079 132.245L676.432 132.654C676.318 132.085 676.074 131.574 675.699 131.12C675.324 130.654 674.829 130.284 674.216 130.012C673.613 129.727 672.892 129.585 672.051 129.585C670.926 129.585 669.977 129.824 669.204 130.301C668.432 130.767 668.045 131.392 668.045 132.176C668.045 132.801 668.295 133.33 668.795 133.762C669.295 134.193 670.153 134.54 671.369 134.801L676.108 135.756C678.653 136.279 680.551 137.12 681.801 138.279C683.051 139.438 683.676 140.96 683.676 142.847C683.676 144.563 683.17 146.068 682.159 147.364C681.159 148.659 679.784 149.671 678.034 150.398C676.295 151.114 674.29 151.472 672.017 151.472C668.551 151.472 665.79 150.75 663.733 149.307C661.687 147.852 660.488 145.875 660.136 143.375L667.278 143C667.494 144.057 668.017 144.864 668.846 145.421C669.676 145.966 670.738 146.239 672.034 146.239C673.307 146.239 674.329 145.995 675.102 145.506C675.886 145.006 676.284 144.364 676.295 143.58C676.284 142.921 676.005 142.381 675.46 141.96C674.915 141.529 674.074 141.199 672.937 140.972L668.403 140.068C665.846 139.557 663.943 138.671 662.693 137.409C661.454 136.148 660.835 134.54 660.835 132.585C660.835 130.904 661.29 129.455 662.199 128.239C663.119 127.023 664.409 126.085 666.068 125.426C667.738 124.767 669.693 124.438 671.932 124.438C675.238 124.438 677.841 125.137 679.738 126.534C681.647 127.932 682.761 129.835 683.079 132.245ZM695.51 135.824V150.96H688.248V116.051H695.305V129.398H695.612C696.203 127.852 697.157 126.642 698.476 125.767C699.794 124.881 701.447 124.438 703.436 124.438C705.254 124.438 706.839 124.835 708.191 125.631C709.555 126.415 710.612 127.546 711.362 129.023C712.123 130.489 712.498 132.245 712.487 134.29V150.96H705.226V135.585C705.237 133.972 704.828 132.716 703.998 131.818C703.18 130.921 702.032 130.472 700.555 130.472C699.566 130.472 698.691 130.682 697.93 131.102C697.18 131.523 696.589 132.137 696.157 132.943C695.737 133.739 695.521 134.699 695.51 135.824ZM718.201 150.96V124.779H725.463V150.96H718.201ZM721.849 121.404C720.77 121.404 719.843 121.046 719.071 120.33C718.309 119.602 717.929 118.733 717.929 117.722C717.929 116.722 718.309 115.864 719.071 115.148C719.843 114.421 720.77 114.057 721.849 114.057C722.929 114.057 723.849 114.421 724.611 115.148C725.383 115.864 725.77 116.722 725.77 117.722C725.77 118.733 725.383 119.602 724.611 120.33C723.849 121.046 722.929 121.404 721.849 121.404ZM731.28 160.779V124.779H738.439V129.176H738.763C739.081 128.472 739.541 127.756 740.143 127.029C740.757 126.29 741.552 125.676 742.53 125.188C743.518 124.688 744.745 124.438 746.211 124.438C748.12 124.438 749.882 124.938 751.495 125.938C753.109 126.926 754.399 128.421 755.365 130.421C756.331 132.409 756.814 134.904 756.814 137.904C756.814 140.824 756.342 143.29 755.399 145.301C754.467 147.301 753.194 148.818 751.581 149.852C749.978 150.875 748.183 151.387 746.194 151.387C744.785 151.387 743.586 151.154 742.598 150.688C741.62 150.222 740.819 149.637 740.194 148.932C739.569 148.216 739.092 147.495 738.763 146.767H738.541V160.779H731.28ZM738.388 137.87C738.388 139.426 738.603 140.784 739.035 141.943C739.467 143.102 740.092 144.006 740.91 144.654C741.728 145.29 742.723 145.608 743.893 145.608C745.075 145.608 746.075 145.284 746.893 144.637C747.711 143.977 748.331 143.068 748.751 141.909C749.183 140.739 749.399 139.392 749.399 137.87C749.399 136.358 749.189 135.029 748.768 133.881C748.348 132.733 747.728 131.835 746.91 131.188C746.092 130.54 745.086 130.216 743.893 130.216C742.711 130.216 741.711 130.529 740.893 131.154C740.086 131.779 739.467 132.665 739.035 133.813C738.603 134.96 738.388 136.313 738.388 137.87Z" fill="black"/>
<path d="M657.519 39C656.607 39 634.701 43.1049 599.712 50.2365C580.907 54.0696 559.555 59.704 533.309 64.3064C520.635 66.5288 514.733 68.4805 504.195 70.9958C485.132 75.5458 461.384 86.8487 439.989 99.032C424.232 108.004 418.428 118.209 415.443 126.467C406.943 149.979 411.946 169.305 419.527 184.294C424.366 193.862 439.519 199.753 458.578 205.503C468.825 208.594 480.83 209.884 506.095 210.824C531.36 211.764 569.672 211.764 606.512 208.799C643.353 205.835 677.56 199.905 704.076 193.658C748.917 183.093 772.635 171.254 783.671 164.592C806.698 150.693 818.286 127.04 824.271 115.293C827.083 109.772 827.519 103.531 827.291 97.5531C827.096 92.4454 824.768 87.8576 820.643 83.2621C815.126 77.1165 802.254 73.5804 785.04 68.75C775.281 66.0117 762.808 65.2878 728.187 65.7231C693.565 66.1585 637.009 68.4389 591.454 73.9467C545.9 79.4544 513.061 88.1202 490.899 95.549C468.737 102.978 458.246 108.907 447.438 115.016" stroke="#FF516E" stroke-width="2" stroke-linecap="round"/>
<path d="M269.398 237.091V272H262.017V237.091H269.398ZM282.596 256.864V272H275.334V245.818H282.255V250.438H282.562C283.141 248.915 284.113 247.71 285.476 246.824C286.84 245.926 288.493 245.477 290.437 245.477C292.255 245.477 293.84 245.875 295.192 246.67C296.544 247.466 297.596 248.602 298.346 250.08C299.096 251.545 299.471 253.295 299.471 255.33V272H292.209V256.625C292.221 255.023 291.812 253.773 290.982 252.875C290.152 251.966 289.01 251.511 287.556 251.511C286.579 251.511 285.715 251.722 284.965 252.142C284.226 252.562 283.647 253.176 283.226 253.983C282.817 254.778 282.607 255.739 282.596 256.864ZM319.12 245.818V251.273H303.353V245.818H319.12ZM306.932 239.545H314.194V263.955C314.194 264.625 314.296 265.148 314.5 265.523C314.705 265.886 314.989 266.142 315.353 266.29C315.728 266.437 316.16 266.511 316.648 266.511C316.989 266.511 317.33 266.483 317.671 266.426C318.012 266.358 318.273 266.307 318.455 266.273L319.597 271.676C319.233 271.79 318.722 271.92 318.063 272.068C317.404 272.227 316.603 272.324 315.66 272.358C313.91 272.426 312.375 272.193 311.057 271.659C309.75 271.125 308.733 270.295 308.006 269.17C307.279 268.045 306.921 266.625 306.932 264.909V239.545ZM335.5 272.511C332.807 272.511 330.489 271.966 328.546 270.875C326.614 269.773 325.125 268.216 324.08 266.205C323.035 264.182 322.512 261.79 322.512 259.028C322.512 256.335 323.035 253.972 324.08 251.938C325.125 249.903 326.597 248.318 328.495 247.182C330.404 246.045 332.642 245.477 335.211 245.477C336.938 245.477 338.546 245.756 340.035 246.312C341.535 246.858 342.841 247.682 343.955 248.784C345.08 249.886 345.955 251.273 346.58 252.943C347.205 254.602 347.517 256.545 347.517 258.773V260.767H325.41V256.267H340.682C340.682 255.222 340.455 254.295 340 253.489C339.546 252.682 338.915 252.051 338.108 251.597C337.313 251.131 336.387 250.898 335.33 250.898C334.228 250.898 333.25 251.153 332.398 251.665C331.557 252.165 330.898 252.841 330.421 253.693C329.944 254.534 329.699 255.472 329.688 256.506V260.784C329.688 262.08 329.927 263.199 330.404 264.142C330.892 265.085 331.58 265.812 332.466 266.324C333.353 266.835 334.404 267.091 335.62 267.091C336.427 267.091 337.165 266.977 337.836 266.75C338.506 266.523 339.08 266.182 339.557 265.727C340.035 265.273 340.398 264.716 340.648 264.057L347.364 264.5C347.023 266.114 346.324 267.523 345.267 268.727C344.222 269.92 342.87 270.852 341.211 271.523C339.563 272.182 337.66 272.511 335.5 272.511ZM352.256 272V245.818H359.296V250.386H359.569C360.046 248.761 360.847 247.534 361.972 246.705C363.097 245.864 364.392 245.443 365.858 245.443C366.222 245.443 366.614 245.466 367.035 245.511C367.455 245.557 367.824 245.619 368.142 245.699V252.142C367.802 252.04 367.33 251.949 366.728 251.869C366.125 251.79 365.574 251.75 365.074 251.75C364.006 251.75 363.052 251.983 362.211 252.449C361.381 252.903 360.722 253.54 360.233 254.358C359.756 255.176 359.517 256.119 359.517 257.188V272H352.256ZM379.158 256.864V272H371.897V245.818H378.817V250.438H379.124C379.704 248.915 380.675 247.71 382.039 246.824C383.402 245.926 385.056 245.477 386.999 245.477C388.817 245.477 390.402 245.875 391.755 246.67C393.107 247.466 394.158 248.602 394.908 250.08C395.658 251.545 396.033 253.295 396.033 255.33V272H388.772V256.625C388.783 255.023 388.374 253.773 387.544 252.875C386.715 251.966 385.573 251.511 384.118 251.511C383.141 251.511 382.277 251.722 381.527 252.142C380.789 252.562 380.209 253.176 379.789 253.983C379.38 254.778 379.169 255.739 379.158 256.864ZM423.54 253.284L416.892 253.693C416.779 253.125 416.535 252.614 416.16 252.159C415.785 251.693 415.29 251.324 414.677 251.051C414.074 250.767 413.353 250.625 412.512 250.625C411.387 250.625 410.438 250.864 409.665 251.341C408.892 251.807 408.506 252.432 408.506 253.216C408.506 253.841 408.756 254.369 409.256 254.801C409.756 255.233 410.614 255.58 411.83 255.841L416.569 256.795C419.114 257.318 421.012 258.159 422.262 259.318C423.512 260.477 424.137 262 424.137 263.886C424.137 265.602 423.631 267.108 422.62 268.403C421.62 269.699 420.245 270.71 418.495 271.438C416.756 272.153 414.75 272.511 412.478 272.511C409.012 272.511 406.25 271.79 404.194 270.347C402.148 268.892 400.949 266.915 400.597 264.415L407.739 264.04C407.955 265.097 408.478 265.903 409.307 266.46C410.137 267.006 411.199 267.278 412.495 267.278C413.767 267.278 414.79 267.034 415.563 266.545C416.347 266.045 416.745 265.403 416.756 264.619C416.745 263.96 416.466 263.42 415.921 263C415.375 262.568 414.535 262.239 413.398 262.011L408.864 261.108C406.307 260.597 404.404 259.71 403.154 258.449C401.915 257.187 401.296 255.58 401.296 253.625C401.296 251.943 401.75 250.494 402.66 249.278C403.58 248.062 404.87 247.125 406.529 246.466C408.199 245.807 410.154 245.477 412.392 245.477C415.699 245.477 418.302 246.176 420.199 247.574C422.108 248.972 423.222 250.875 423.54 253.284ZM435.971 256.864V272H428.709V237.091H435.766V250.438H436.073C436.664 248.892 437.618 247.682 438.937 246.807C440.255 245.92 441.908 245.477 443.897 245.477C445.715 245.477 447.3 245.875 448.652 246.67C450.016 247.455 451.073 248.585 451.823 250.062C452.584 251.528 452.959 253.284 452.948 255.33V272H445.687V256.625C445.698 255.011 445.289 253.756 444.459 252.858C443.641 251.96 442.493 251.511 441.016 251.511C440.027 251.511 439.152 251.722 438.391 252.142C437.641 252.562 437.05 253.176 436.618 253.983C436.198 254.778 435.982 255.739 435.971 256.864ZM458.662 272V245.818H465.924V272H458.662ZM462.31 242.443C461.231 242.443 460.304 242.085 459.532 241.369C458.77 240.642 458.39 239.773 458.39 238.761C458.39 237.761 458.77 236.903 459.532 236.188C460.304 235.46 461.231 235.097 462.31 235.097C463.39 235.097 464.31 235.46 465.071 236.188C465.844 236.903 466.231 237.761 466.231 238.761C466.231 239.773 465.844 240.642 465.071 241.369C464.31 242.085 463.39 242.443 462.31 242.443ZM471.741 281.818V245.818H478.9V250.216H479.223C479.542 249.511 480.002 248.795 480.604 248.068C481.218 247.33 482.013 246.716 482.991 246.227C483.979 245.727 485.206 245.477 486.672 245.477C488.581 245.477 490.343 245.977 491.956 246.977C493.57 247.966 494.86 249.46 495.826 251.46C496.792 253.449 497.275 255.943 497.275 258.943C497.275 261.864 496.803 264.33 495.86 266.341C494.928 268.341 493.655 269.858 492.042 270.892C490.439 271.915 488.644 272.426 486.655 272.426C485.246 272.426 484.047 272.193 483.059 271.727C482.081 271.261 481.28 270.676 480.655 269.972C480.03 269.256 479.553 268.534 479.223 267.807H479.002V281.818H471.741ZM478.848 258.909C478.848 260.466 479.064 261.824 479.496 262.983C479.928 264.142 480.553 265.045 481.371 265.693C482.189 266.33 483.184 266.648 484.354 266.648C485.536 266.648 486.536 266.324 487.354 265.676C488.172 265.017 488.792 264.108 489.212 262.949C489.644 261.778 489.86 260.432 489.86 258.909C489.86 257.398 489.65 256.068 489.229 254.92C488.809 253.773 488.189 252.875 487.371 252.227C486.553 251.58 485.547 251.256 484.354 251.256C483.172 251.256 482.172 251.568 481.354 252.193C480.547 252.818 479.928 253.705 479.496 254.852C479.064 256 478.848 257.352 478.848 258.909Z" fill="black"/>
<path d="M245 304.014C246.824 302.176 256.002 298.514 267.763 289.765C271.926 286.669 275.849 285.135 279.753 283.753C283.888 282.289 291.936 292.405 300.257 299.17C305.86 303.727 314.52 293.428 322.827 290.663C332.452 287.46 343.075 297.049 352.507 304.429C361.873 311.757 373.039 295.28 384.317 295.708C387.624 295.834 390.066 299.813 393.072 301.223C407.906 308.179 429.678 293.428 442.137 293.186C447.248 293.086 450.921 296.62 454.362 299.619C463.575 307.648 478.991 289.751 488.673 289.723C501.264 289.687 505.735 298.942 511.243 298.721C514.47 298.044 518.575 296.219 522.97 292.543C527.365 288.867 531.926 283.393 536.625 277.754" stroke="#FF9D15" stroke-width="2" stroke-linecap="round"/>
</svg>
