<svg width="907" height="348" viewBox="0 0 907 348" fill="none" xmlns="http://www.w3.org/2000/svg">
<path d="M21.5476 51.3129L25.6047 80.181L19.5013 81.0388L15.4441 52.1707L21.5476 51.3129ZM30.5136 79.4911L27.4707 57.84L33.1936 57.0358L33.7304 60.8557L33.9842 60.82C34.2569 59.488 34.8681 58.3816 35.8175 57.5007C36.767 56.6198 37.9747 56.0763 39.4407 55.8703C40.9254 55.6616 42.2415 55.8552 43.3889 56.451C44.535 57.0373 45.3704 57.9357 45.8951 59.1461L46.1206 59.1144C46.388 57.8119 47.0474 56.7082 48.0989 55.8034C49.1585 54.8879 50.4824 54.3185 52.0705 54.0953C54.0909 53.8113 55.8212 54.2246 57.2613 55.335C58.7095 56.4348 59.5987 58.1593 59.9289 60.5086L61.9753 75.0695L55.9846 75.9114L54.1046 62.5345C53.9356 61.3317 53.4893 60.4745 52.7657 59.9629C52.0422 59.4513 51.2012 59.2628 50.2427 59.3975C49.1526 59.5507 48.351 60.0179 47.8379 60.7992C47.3235 61.571 47.1456 62.5208 47.3041 63.6484L49.1623 76.8702L43.3407 77.6884L41.4429 64.1847C41.2937 63.1228 40.8694 62.32 40.1701 61.7762C39.4802 61.2311 38.6419 61.0279 37.6552 61.1666C36.988 61.2603 36.4103 61.514 35.9222 61.9276C35.4422 62.3305 35.0894 62.8544 34.8638 63.4994C34.6369 64.135 34.5796 64.8522 34.6919 65.6509L36.5184 78.6472L30.5136 79.4911ZM67.8596 82.522L63.6757 52.7518L69.5959 51.9197L70.107 55.5564L70.3748 55.5188C70.5561 54.8992 70.8534 54.2537 71.267 53.5823C71.6886 52.9001 72.2751 52.3002 73.0264 51.7826C73.7859 51.2542 74.7717 50.9048 75.984 50.7345C77.5627 50.5126 79.0774 50.7214 80.528 51.3608C81.9773 51.9908 83.2175 53.0766 84.2487 54.6183C85.2786 56.1505 85.9679 58.1571 86.3165 60.6379C86.6559 63.053 86.5526 65.147 86.0064 66.9199C85.4682 68.6821 84.5921 70.0846 83.3778 71.1272C82.1717 72.1592 80.7464 72.7907 79.1019 73.0219C77.9366 73.1856 76.9181 73.1323 76.0464 72.8619C75.1841 72.5902 74.4536 72.1994 73.8549 71.6894C73.2548 71.17 72.7763 70.6288 72.4193 70.0656L72.236 70.0914L73.8644 81.6781L67.8596 82.522ZM71.075 62.7512C71.256 64.0386 71.5924 65.1365 72.0842 66.0448C72.576 66.9532 73.1978 67.6276 73.9497 68.0682C74.7002 68.4993 75.5595 68.6469 76.5274 68.5108C77.5047 68.3735 78.294 67.9894 78.8953 67.3587C79.4953 66.7186 79.9018 65.8948 80.1148 64.8875C80.3358 63.8694 80.3579 62.7307 80.1809 61.4715C80.0053 60.2217 79.6769 59.1466 79.1958 58.2464C78.7147 57.3461 78.0982 56.6757 77.3464 56.2352C76.5945 55.7946 75.7252 55.6437 74.7385 55.7824C73.7612 55.9197 72.9706 56.2944 72.3666 56.9063C71.772 57.5169 71.3629 58.3219 71.1392 59.3212C70.9155 60.3205 70.8941 61.4638 71.075 62.7512ZM98.0686 70.4138C96.6872 70.6079 95.4225 70.5413 94.2745 70.2139C93.1251 69.8771 92.1689 69.2784 91.4059 68.4178C90.651 67.5465 90.1732 66.3966 89.9724 64.9682C89.8034 63.7654 89.8823 62.7242 90.209 61.8445C90.5358 60.9649 91.0448 60.2226 91.7359 59.6175C92.4271 59.0125 93.2388 58.5151 94.1711 58.1254C95.1127 57.7343 96.1119 57.4118 97.1687 57.1579C98.4094 56.8493 99.4071 56.5845 100.162 56.3635C100.915 56.133 101.449 55.8759 101.764 55.5921C102.079 55.3083 102.204 54.9362 102.139 54.4757L102.127 54.3911C102.002 53.4984 101.623 52.8473 100.99 52.4379C100.367 52.0272 99.5433 51.8938 98.519 52.0378C97.4383 52.1896 96.6121 52.5501 96.0405 53.1192C95.4675 53.6788 95.1278 54.3303 95.0215 55.0735L89.4043 55.403C89.5014 54.0478 89.896 52.8328 90.5882 51.758C91.2792 50.6739 92.2414 49.7816 93.475 49.0812C94.7166 48.3701 96.202 47.893 97.9311 47.65C99.1339 47.481 100.305 47.4601 101.444 47.5875C102.592 47.7136 103.636 48.0126 104.574 48.4844C105.522 48.9549 106.31 49.6203 106.939 50.4807C107.566 51.3316 107.971 52.4008 108.152 53.6882L110.204 68.2914L104.509 69.0917L104.087 66.0893L103.918 66.1131C103.666 66.8386 103.284 67.5007 102.774 68.0994C102.263 68.6887 101.619 69.1865 100.842 69.5927C100.064 69.9895 99.1399 70.2632 98.0686 70.4138ZM99.2059 66.0279C100.089 65.9038 100.845 65.6203 101.472 65.1775C102.099 64.7253 102.562 64.1715 102.863 63.5159C103.164 62.8603 103.261 62.152 103.154 61.3908L102.831 59.0932C102.66 59.2418 102.418 59.3908 102.103 59.5404C101.797 59.6793 101.448 59.8194 101.056 59.9608C100.662 60.0928 100.268 60.22 99.873 60.3426C99.4769 60.4558 99.1176 60.559 98.7953 60.6522C98.1051 60.8546 97.5127 61.1055 97.0181 61.405C96.5236 61.7045 96.1577 62.0674 95.9206 62.4936C95.6821 62.9104 95.6024 63.4008 95.6817 63.9646C95.7966 64.7822 96.1804 65.3655 96.8332 65.7145C97.494 66.0529 98.2849 66.1573 99.2059 66.0279ZM124.705 66.6847C122.487 66.9964 120.513 66.7946 118.784 66.0794C117.062 65.3535 115.656 64.2096 114.564 62.6477C113.482 61.0844 112.787 59.208 112.479 57.0185C112.167 54.8008 112.322 52.7955 112.942 51.0026C113.57 49.199 114.612 47.7157 116.068 46.5528C117.523 45.3805 119.345 44.6405 121.534 44.3328C123.423 44.0673 125.125 44.1779 126.641 44.6644C128.156 45.151 129.414 45.9564 130.416 47.0806C131.417 48.2048 132.077 49.5973 132.397 51.2581L126.731 52.0545C126.419 50.9963 125.874 50.1865 125.096 49.6251C124.325 49.053 123.39 48.8442 122.291 48.9987C121.36 49.1294 120.583 49.4974 119.959 50.1026C119.343 50.697 118.91 51.5006 118.659 52.5133C118.409 53.5259 118.379 54.7136 118.571 56.0761C118.765 57.4575 119.118 58.6058 119.63 59.5208C120.151 60.4346 120.795 61.0963 121.562 61.5061C122.329 61.9158 123.177 62.0553 124.107 61.9245C124.793 61.8281 125.389 61.6006 125.895 61.2421C126.409 60.8823 126.808 60.4095 127.089 59.8236C127.379 59.2271 127.527 58.5403 127.533 57.7633L133.199 56.9669C133.338 58.634 133.092 60.154 132.46 61.5268C131.837 62.8889 130.87 64.0214 129.56 64.9242C128.249 65.8271 126.631 66.414 124.705 66.6847ZM146.633 41.0929L147.267 45.6036L134.228 47.436L133.594 42.9254L146.633 41.0929ZM135.825 37.3221L141.83 36.4782L144.667 56.6633C144.745 57.2178 144.89 57.6381 145.103 57.9245C145.314 58.2014 145.579 58.3798 145.897 58.4597C146.224 58.5383 146.59 58.5492 146.994 58.4924C147.276 58.4528 147.554 58.3897 147.83 58.3031C148.104 58.2071 148.314 58.1344 148.46 58.0851L150.033 62.4207C149.745 62.557 149.338 62.7245 148.81 62.9232C148.283 63.1314 147.632 63.3044 146.856 63.4422C145.417 63.7019 144.121 63.6876 142.969 63.3991C141.826 63.1093 140.889 62.5415 140.156 61.6957C139.424 60.8499 138.963 59.7169 138.773 58.2966L135.825 37.3221ZM162.887 60.8873L158.83 32.0192L170.219 30.4185C172.399 30.1121 174.315 30.2406 175.965 30.8039C177.624 31.3566 178.958 32.2856 179.965 33.591C180.981 34.8857 181.623 36.4868 181.891 38.3945C182.16 40.3115 181.978 42.0188 181.346 43.5164C180.712 45.0046 179.661 46.2255 178.195 47.179C176.738 48.1312 174.901 48.7632 172.683 49.0749L165.057 50.1466L164.368 45.2413L171.007 44.3082C172.172 44.1445 173.118 43.8487 173.843 43.4209C174.569 42.9931 175.075 42.4333 175.361 41.7414C175.656 41.0483 175.737 40.2271 175.604 39.278C175.469 38.3195 175.163 37.5384 174.685 36.9348C174.217 36.3298 173.569 35.913 172.742 35.6843C171.922 35.4449 170.925 35.4077 169.75 35.5728L165.635 36.1513L168.99 60.0295L162.887 60.8873ZM176.631 45.559L185.652 57.6879L178.914 58.6349L170.048 46.4842L176.631 45.559ZM198.401 56.3274C196.174 56.6404 194.193 56.4587 192.459 55.7824C190.734 55.0954 189.322 53.981 188.224 52.4392C187.124 50.888 186.414 48.9707 186.093 46.6872C185.78 44.46 185.937 42.4447 186.565 40.6411C187.194 38.8375 188.226 37.3555 189.664 36.1953C191.11 35.0337 192.895 34.3036 195.019 34.0052C196.448 33.8044 197.81 33.8478 199.105 34.1352C200.409 34.412 201.586 34.9414 202.635 35.7235C203.693 36.5043 204.578 37.549 205.289 38.8578C205.998 40.1571 206.483 41.7277 206.742 43.5696L206.973 45.2188L188.691 47.7882L188.168 44.0669L200.798 42.2919C200.676 41.4273 200.381 40.6879 199.911 40.0735C199.442 39.4591 198.847 39.0109 198.127 38.7288C197.415 38.4359 196.622 38.3509 195.748 38.4737C194.836 38.6019 194.058 38.9269 193.412 39.4488C192.775 39.96 192.309 40.5957 192.013 41.356C191.716 42.1069 191.623 42.9105 191.734 43.767L192.231 47.305C192.382 48.3763 192.709 49.2742 193.213 49.9987C193.727 50.7219 194.38 51.2434 195.173 51.5632C195.965 51.8831 196.864 51.9724 197.869 51.831C198.537 51.7373 199.134 51.5575 199.662 51.2916C200.19 51.0257 200.625 50.6771 200.967 50.2458C201.309 49.8144 201.545 49.3117 201.675 48.7376L207.28 48.3236C207.186 49.6976 206.772 50.9441 206.038 52.063C205.312 53.1712 204.302 54.0989 203.008 54.8462C201.722 55.5827 200.186 56.0764 198.401 56.3274ZM213.338 62.0763L209.155 32.306L215.075 31.474L215.586 35.1107L215.854 35.0731C216.035 34.4535 216.332 33.808 216.746 33.1366C217.167 32.4544 217.754 31.8545 218.505 31.3369C219.265 30.8085 220.251 30.4591 221.463 30.2887C223.042 30.0669 224.556 30.2756 226.007 30.9151C227.456 31.5451 228.696 32.6309 229.728 34.1726C230.757 35.7048 231.447 37.7113 231.795 40.1922C232.135 42.6073 232.031 44.7013 231.485 46.4742C230.947 48.2364 230.071 49.6388 228.857 50.6815C227.651 51.7135 226.225 52.345 224.581 52.5761C223.415 52.7399 222.397 52.6866 221.525 52.4162C220.663 52.1445 219.932 51.7537 219.334 51.2437C218.734 50.7243 218.255 50.183 217.898 49.6199L217.715 49.6457L219.343 61.2324L213.338 62.0763ZM216.554 42.3055C216.735 43.5929 217.071 44.6908 217.563 45.5991C218.055 46.5074 218.677 47.1819 219.429 47.6224C220.179 48.0536 221.038 48.2011 222.006 48.0651C222.984 47.9278 223.773 47.5437 224.374 46.913C224.974 46.2729 225.381 45.4491 225.594 44.4417C225.815 43.4236 225.837 42.285 225.66 41.0258C225.484 39.7759 225.156 38.7009 224.675 37.8006C224.194 36.9004 223.577 36.23 222.825 35.7894C222.073 35.3489 221.204 35.198 220.217 35.3366C219.24 35.474 218.449 35.8486 217.845 36.4606C217.251 37.0712 216.842 37.8761 216.618 38.8754C216.394 39.8747 216.373 41.0181 216.554 42.3055ZM247.158 49.475C244.968 49.7827 243.01 49.5837 241.281 48.8779C239.561 48.1613 238.151 47.0275 237.052 45.4763C235.951 43.9157 235.244 42.0265 234.933 39.8088C234.618 37.5723 234.776 35.5569 235.405 33.7627C236.033 31.9591 237.076 30.4805 238.534 29.327C239.999 28.1628 241.827 27.4268 244.016 27.1191C246.206 26.8114 248.16 27.0158 249.881 27.7323C251.609 28.4381 253.024 29.5713 254.124 31.1319C255.224 32.6831 255.931 34.577 256.245 36.8135C256.557 39.0312 256.399 41.0419 255.771 42.8455C255.141 44.6397 254.094 46.1189 252.628 47.2831C251.171 48.4366 249.348 49.1673 247.158 49.475ZM246.532 44.8194C247.529 44.6794 248.321 44.2806 248.909 43.623C249.495 42.956 249.888 42.1054 250.088 41.0712C250.297 40.0356 250.313 38.8882 250.136 37.629C249.959 36.3698 249.627 35.2712 249.141 34.3334C248.664 33.3942 248.052 32.6849 247.304 32.2055C246.556 31.726 245.684 31.5563 244.688 31.6963C243.683 31.8376 242.877 32.2431 242.272 32.9127C241.676 33.581 241.273 34.433 241.064 35.4685C240.864 36.5028 240.853 37.6495 241.03 38.9087C241.207 40.1679 241.534 41.2671 242.011 42.2063C242.497 43.1441 243.119 43.8521 243.876 44.3303C244.642 44.7977 245.527 44.9607 246.532 44.8194ZM261.659 47.0057L258.617 25.3546L264.438 24.5364L264.969 28.3141L265.195 28.2824C265.4 26.8831 265.92 25.7751 266.754 24.9584C267.587 24.1323 268.609 23.634 269.821 23.4636C270.122 23.4214 270.449 23.3946 270.802 23.3833C271.155 23.3721 271.468 23.3808 271.74 23.4096L272.489 28.7378C272.195 28.6929 271.794 28.6725 271.287 28.6767C270.78 28.6809 270.319 28.7121 269.906 28.7702C269.023 28.8943 268.26 29.1979 267.619 29.6809C266.986 30.1532 266.515 30.7561 266.206 31.4895C265.906 32.2215 265.819 33.0292 265.943 33.9126L267.664 46.1618L261.659 47.0057ZM287.46 21.3009L288.094 25.8116L275.055 27.644L274.421 23.1334L287.46 21.3009ZM276.653 17.5301L282.657 16.6862L285.494 36.8713C285.572 37.4258 285.717 37.8462 285.93 38.1325C286.142 38.4094 286.406 38.5878 286.724 38.6678C287.051 38.7463 287.417 38.7572 287.821 38.7004C288.103 38.6608 288.382 38.5977 288.657 38.5111C288.931 38.4151 289.141 38.3424 289.288 38.2931L290.86 42.6287C290.572 42.765 290.165 42.9325 289.637 43.1312C289.11 43.3394 288.459 43.5124 287.683 43.6502C286.244 43.91 284.948 43.8956 283.796 43.6071C282.653 43.3173 281.716 42.7496 280.984 41.9038C280.251 41.058 279.79 39.9249 279.6 38.5046L276.653 17.5301ZM309.982 24.4315L304.533 25.5424C304.373 25.0858 304.111 24.6913 303.748 24.359C303.384 24.0173 302.932 23.7693 302.393 23.6151C301.862 23.4502 301.249 23.4166 300.553 23.5143C299.623 23.6451 298.866 23.9527 298.283 24.4372C297.698 24.9122 297.451 25.474 297.542 26.1224C297.615 26.6392 297.883 27.0472 298.346 27.3461C298.81 27.6451 299.56 27.832 300.596 27.9068L304.625 28.1455C306.791 28.2819 308.458 28.7568 309.626 29.57C310.795 30.3832 311.489 31.5698 311.708 33.1297C311.907 34.5487 311.664 35.8526 310.978 37.0414C310.302 38.2289 309.282 39.2251 307.92 40.0299C306.565 40.824 304.948 41.3531 303.069 41.6172C300.203 42.02 297.835 41.7442 295.967 40.7898C294.106 39.8247 292.885 38.329 292.303 36.3025L298.166 35.1624C298.467 36.0112 298.993 36.6177 299.744 36.9817C300.493 37.3364 301.403 37.4384 302.475 37.2878C303.527 37.1399 304.345 36.819 304.927 36.3251C305.517 35.8205 305.771 35.2434 305.69 34.5937C305.604 34.0499 305.311 33.6359 304.811 33.3516C304.309 33.0579 303.576 32.8831 302.61 32.8273L298.755 32.6071C296.581 32.4814 294.904 31.9697 293.724 31.0718C292.553 30.1727 291.854 28.915 291.627 27.2987C291.432 25.9079 291.639 24.6569 292.25 23.5458C292.869 22.4333 293.827 21.5081 295.122 20.7703C296.427 20.0311 298.005 19.5314 299.856 19.2712C302.591 18.8869 304.824 19.1624 306.556 20.0977C308.297 21.0317 309.439 22.4763 309.982 24.4315Z" fill="black"/>
<path d="M9.03556 108.691C10.8023 106.923 20.3259 102.556 32.0695 93.6709C36.2256 90.5266 40.3001 88.6857 44.372 86.9705C48.6837 85.1544 58.5552 92.1314 68.339 96.3507C74.928 99.1922 83.1349 89.5227 91.8177 86.0167C101.879 81.9539 114.478 88.1119 125.537 92.6604C136.517 97.1763 146.735 82.1157 159 80.7462C162.596 80.3447 165.696 83.1994 169.113 83.8849C185.973 87.2674 207.876 71.9915 221.345 69.8985C226.87 69.0401 231.251 71.3463 235.321 73.2543C246.215 78.3622 260.875 61.503 271.359 60.0066C284.994 58.0607 290.892 64.8843 296.833 63.8665C300.252 62.826 304.49 60.7218 308.832 57.0716C313.174 53.4214 317.491 48.2891 321.938 43.0012" stroke="#3C15FF" stroke-width="1.67016" stroke-linecap="round"/>
<path d="M309.945 136.598L314.002 107.73L333.454 110.464L332.747 115.496L319.398 113.62L318.431 120.499L330.779 122.234L330.072 127.266L317.724 125.531L316.755 132.424L330.16 134.308L329.453 139.34L309.945 136.598ZM357.364 121.184L346.752 141.771L339.986 140.82L335.46 118.105L341.803 118.997L344.122 135.12L344.348 135.152L351.007 120.29L357.364 121.184ZM366.504 144.978C364.277 144.665 362.424 143.945 360.943 142.817C359.474 141.681 358.424 140.22 357.793 138.436C357.164 136.641 357.009 134.602 357.33 132.319C357.643 130.092 358.35 128.198 359.451 126.637C360.552 125.077 361.953 123.937 363.655 123.218C365.366 122.5 367.283 122.29 369.407 122.589C370.835 122.789 372.132 123.207 373.299 123.84C374.476 124.465 375.461 125.299 376.253 126.34C377.056 127.382 377.618 128.63 377.941 130.084C378.265 131.529 378.297 133.172 378.039 135.014L377.807 136.663L359.525 134.094L360.048 130.372L372.677 132.147C372.799 131.283 372.719 130.49 372.436 129.77C372.154 129.05 371.706 128.456 371.092 127.986C370.488 127.508 369.749 127.208 368.875 127.085C367.964 126.957 367.126 127.055 366.362 127.379C365.608 127.694 364.985 128.177 364.491 128.826C363.998 129.466 363.687 130.213 363.558 131.067L363.061 134.605C362.91 135.676 362.977 136.629 363.262 137.465C363.557 138.302 364.041 138.983 364.714 139.509C365.388 140.035 366.227 140.368 367.233 140.51C367.9 140.603 368.524 140.595 369.105 140.485C369.686 140.375 370.2 140.16 370.648 139.84C371.095 139.519 371.46 139.101 371.744 138.585L377.246 139.732C376.777 141.027 376.035 142.111 375.021 142.984C374.018 143.849 372.791 144.463 371.341 144.824C369.902 145.178 368.29 145.229 366.504 144.978ZM388.184 134.83L386.425 147.347L380.42 146.503L383.463 124.852L389.186 125.656L388.649 129.476L388.902 129.512C389.559 128.32 390.502 127.436 391.733 126.862C392.965 126.278 394.384 126.099 395.991 126.325C397.495 126.536 398.759 127.049 399.785 127.864C400.811 128.679 401.548 129.741 401.997 131.05C402.447 132.349 402.553 133.84 402.317 135.522L400.379 149.308L394.375 148.464L396.162 135.75C396.357 134.426 396.164 133.345 395.583 132.506C395.002 131.658 394.111 131.149 392.908 130.98C392.1 130.866 391.361 130.94 390.692 131.2C390.032 131.462 389.482 131.902 389.04 132.521C388.609 133.131 388.324 133.901 388.184 134.83ZM419.671 129.94L419.037 134.451L405.999 132.619L406.633 128.108L419.671 129.94ZM410.322 123.337L416.327 124.181L413.49 144.366C413.412 144.92 413.436 145.364 413.561 145.698C413.688 146.023 413.893 146.267 414.177 146.432C414.47 146.597 414.818 146.709 415.222 146.765C415.504 146.805 415.79 146.821 416.078 146.814C416.368 146.797 416.59 146.785 416.744 146.778L417.061 151.379C416.747 151.431 416.309 151.48 415.747 151.525C415.183 151.58 414.509 151.567 413.725 151.485C412.27 151.338 411.029 150.967 410.001 150.373C408.982 149.779 408.237 148.975 407.767 147.96C407.296 146.945 407.165 145.729 407.374 144.311L410.322 123.337ZM434.815 154.148L428.275 153.228L442.298 125.761L450.163 126.866L456.058 157.133L449.517 156.214L445.416 132.926L445.191 132.894L434.815 154.148ZM436.001 142.743L451.45 144.914L450.781 149.679L435.332 147.507L436.001 142.743ZM468.135 159.261C465.917 158.95 464.075 158.212 462.61 157.048C461.155 155.875 460.119 154.388 459.5 152.586C458.89 150.785 458.74 148.79 459.047 146.6C459.359 144.382 460.06 142.497 461.15 140.945C462.251 139.384 463.662 138.245 465.382 137.529C467.103 136.803 469.059 136.594 471.249 136.902C473.137 137.167 474.743 137.743 476.066 138.628C477.388 139.513 478.376 140.634 479.028 141.991C479.681 143.348 479.932 144.868 479.782 146.553L474.115 145.757C474.107 144.653 473.806 143.725 473.213 142.971C472.63 142.208 471.789 141.75 470.689 141.595C469.759 141.465 468.911 141.604 468.144 142.014C467.388 142.415 466.75 143.068 466.23 143.973C465.71 144.877 465.354 146.011 465.163 147.373C464.969 148.755 464.991 149.956 465.231 150.976C465.481 151.998 465.917 152.812 466.541 153.417C467.165 154.022 467.943 154.39 468.873 154.521C469.559 154.618 470.194 154.563 470.779 154.358C471.373 154.154 471.886 153.809 472.318 153.324C472.762 152.83 473.093 152.211 473.313 151.465L478.979 152.262C478.653 153.902 477.997 155.296 477.012 156.441C476.038 157.579 474.796 158.401 473.287 158.908C471.779 159.414 470.061 159.532 468.135 159.261ZM491.432 162.536C489.214 162.224 487.372 161.486 485.907 160.322C484.452 159.149 483.415 157.662 482.797 155.86C482.187 154.059 482.036 152.064 482.344 149.874C482.656 147.656 483.357 145.771 484.447 144.219C485.548 142.658 486.959 141.52 488.679 140.803C490.4 140.077 492.356 139.868 494.545 140.176C496.434 140.441 498.04 141.017 499.362 141.902C500.685 142.788 501.673 143.909 502.325 145.265C502.978 146.622 503.229 148.142 503.078 149.827L497.412 149.031C497.404 147.928 497.103 146.999 496.51 146.245C495.927 145.482 495.086 145.024 493.986 144.869C493.056 144.739 492.207 144.878 491.441 145.288C490.685 145.69 490.047 146.343 489.527 147.247C489.007 148.151 488.651 149.285 488.459 150.647C488.265 152.029 488.288 153.23 488.528 154.251C488.777 155.273 489.214 156.086 489.838 156.691C490.462 157.297 491.239 157.665 492.17 157.795C492.856 157.892 493.491 157.837 494.076 157.632C494.67 157.428 495.183 157.083 495.615 156.598C496.058 156.104 496.39 155.485 496.61 154.739L502.276 155.536C501.95 157.177 501.294 158.57 500.309 159.715C499.334 160.853 498.093 161.675 496.584 162.182C495.076 162.688 493.358 162.806 491.432 162.536ZM514.813 165.822C512.586 165.509 510.732 164.788 509.252 163.66C507.783 162.524 506.733 161.064 506.102 159.279C505.472 157.485 505.318 155.446 505.639 153.162C505.952 150.935 506.659 149.041 507.76 147.481C508.861 145.92 510.262 144.78 511.963 144.061C513.674 143.343 515.591 143.134 517.715 143.432C519.144 143.633 520.441 144.05 521.607 144.683C522.784 145.309 523.769 146.142 524.562 147.183C525.364 148.225 525.927 149.473 526.249 150.927C526.573 152.372 526.606 154.015 526.347 155.857L526.115 157.506L507.833 154.937L508.356 151.216L520.986 152.991C521.107 152.126 521.027 151.334 520.745 150.614C520.463 149.894 520.015 149.299 519.4 148.829C518.797 148.352 518.058 148.051 517.184 147.928C516.272 147.8 515.435 147.898 514.67 148.222C513.917 148.538 513.293 149.02 512.799 149.67C512.307 150.31 511.996 151.056 511.866 151.91L511.369 155.448C511.219 156.52 511.286 157.473 511.571 158.308C511.865 159.145 512.349 159.826 513.023 160.352C513.697 160.878 514.536 161.212 515.542 161.353C516.209 161.447 516.833 161.439 517.414 161.329C517.994 161.219 518.509 161.003 518.956 160.683C519.404 160.363 519.769 159.944 520.052 159.428L525.555 160.575C525.085 161.87 524.344 162.954 523.33 163.828C522.326 164.693 521.1 165.306 519.65 165.668C518.211 166.021 516.598 166.073 514.813 165.822ZM548.918 154.401L543.373 153.966C543.345 153.483 543.203 153.032 542.945 152.613C542.689 152.184 542.324 151.821 541.848 151.524C541.383 151.219 540.803 151.018 540.107 150.92C539.177 150.789 538.364 150.876 537.67 151.181C536.977 151.477 536.585 151.949 536.494 152.597C536.421 153.114 536.566 153.58 536.929 153.995C537.293 154.41 537.962 154.797 538.937 155.154L542.745 156.494C544.789 157.222 546.261 158.138 547.16 159.242C548.059 160.346 548.398 161.678 548.179 163.238C547.98 164.657 547.387 165.843 546.4 166.797C545.422 167.752 544.168 168.428 542.636 168.826C541.115 169.216 539.415 169.279 537.535 169.015C534.669 168.612 532.469 167.695 530.936 166.262C529.414 164.822 528.652 163.047 528.652 160.939L534.601 161.459C534.657 162.358 534.995 163.086 535.617 163.643C536.239 164.19 537.086 164.539 538.158 164.69C539.21 164.838 540.084 164.754 540.78 164.44C541.486 164.118 541.89 163.633 541.991 162.986C542.058 162.44 541.89 161.961 541.488 161.55C541.087 161.129 540.43 160.759 539.517 160.439L535.872 159.165C533.817 158.445 532.346 157.491 531.459 156.302C530.582 155.115 530.256 153.714 530.483 152.097C530.679 150.707 531.223 149.561 532.116 148.661C533.019 147.763 534.194 147.138 535.643 146.785C537.101 146.434 538.755 146.389 540.607 146.649C543.341 147.034 545.412 147.914 546.819 149.29C548.235 150.668 548.935 152.372 548.918 154.401ZM571.207 157.533L565.662 157.099C565.634 156.616 565.492 156.165 565.234 155.745C564.978 155.316 564.612 154.953 564.137 154.657C563.672 154.352 563.091 154.15 562.396 154.053C561.466 153.922 560.653 154.009 559.959 154.314C559.266 154.609 558.874 155.081 558.782 155.73C558.71 156.246 558.855 156.712 559.218 157.128C559.582 157.543 560.251 157.929 561.226 158.287L565.034 159.627C567.078 160.355 568.55 161.271 569.449 162.375C570.347 163.478 570.687 164.81 570.468 166.37C570.269 167.789 569.676 168.975 568.689 169.929C567.711 170.884 566.457 171.561 564.925 171.959C563.404 172.349 561.704 172.412 559.824 172.148C556.958 171.745 554.758 170.827 553.225 169.395C551.703 167.954 550.941 166.18 550.94 164.071L556.89 164.591C556.946 165.49 557.284 166.218 557.906 166.775C558.528 167.323 559.375 167.672 560.446 167.822C561.499 167.97 562.373 167.887 563.069 167.573C563.775 167.25 564.179 166.766 564.279 166.118C564.347 165.572 564.179 165.093 563.777 164.682C563.376 164.262 562.719 163.892 561.806 163.572L558.161 162.298C556.106 161.578 554.635 160.623 553.748 159.435C552.87 158.248 552.545 156.846 552.772 155.23C552.968 153.839 553.512 152.694 554.405 151.794C555.308 150.895 556.483 150.27 557.932 149.918C559.39 149.567 561.044 149.522 562.896 149.782C565.63 150.166 567.701 151.046 569.108 152.423C570.524 153.801 571.224 155.504 571.207 157.533Z" fill="black"/>
<path d="M292.259 160.294C294.327 159.064 304.091 157.408 317.068 151.998C321.66 150.083 325.831 149.401 329.965 148.839C334.343 148.244 341.388 157.599 349.091 164.275C354.279 168.772 364.273 161.661 373.048 160.608C383.217 159.389 392.943 168.684 401.71 176.019C410.413 183.301 423.664 171.539 435.102 173.501C438.455 174.076 440.49 177.652 443.391 179.226C457.706 186.989 481.562 178.145 494.28 179.732C499.496 180.383 502.835 183.774 505.998 186.699C514.467 194.528 532.208 182.222 542.072 183.586C554.9 185.359 558.399 193.503 564.034 194.112C567.398 194.025 571.787 193.133 576.682 190.781C581.578 188.429 586.847 184.644 592.276 180.744" stroke="#FF9D15" stroke-width="1.67016" stroke-linecap="round"/>
<path d="M140.922 256.349L148.467 228.191L159.576 231.168C161.703 231.737 163.416 232.604 164.715 233.768C166.026 234.925 166.89 236.301 167.308 237.896C167.737 239.485 167.702 241.209 167.204 243.07C166.703 244.94 165.868 246.44 164.7 247.572C163.535 248.694 162.092 249.407 160.369 249.712C158.656 250.019 156.718 249.883 154.555 249.304L147.116 247.31L148.398 242.526L154.874 244.261C156.011 244.566 156.997 244.663 157.832 244.552C158.667 244.442 159.351 244.125 159.885 243.599C160.428 243.077 160.823 242.353 161.071 241.427C161.322 240.492 161.345 239.653 161.141 238.911C160.947 238.171 160.513 237.534 159.841 237C159.18 236.46 158.277 236.036 157.131 235.729L153.116 234.653L146.875 257.945L140.922 256.349ZM159.562 247.61L163.127 262.299L156.555 260.538L153.141 245.889L159.562 247.61ZM175.394 266.028C173.222 265.446 171.47 264.505 170.138 263.205C168.818 261.899 167.954 260.321 167.545 258.473C167.139 256.615 167.234 254.573 167.831 252.345C168.413 250.173 169.346 248.379 170.629 246.965C171.912 245.55 173.441 244.589 175.218 244.083C177.003 243.579 178.932 243.604 181.003 244.159C182.397 244.533 183.633 245.105 184.714 245.876C185.806 246.64 186.682 247.587 187.342 248.717C188.011 249.849 188.417 251.156 188.56 252.639C188.706 254.112 188.538 255.747 188.057 257.544L187.626 259.152L169.793 254.374L170.766 250.744L183.085 254.045C183.311 253.202 183.328 252.406 183.135 251.657C182.943 250.908 182.571 250.263 182.018 249.722C181.477 249.174 180.781 248.786 179.928 248.557C179.039 248.319 178.195 248.314 177.397 248.542C176.611 248.764 175.933 249.167 175.364 249.751C174.797 250.326 174.398 251.03 174.165 251.861L173.24 255.312C172.96 256.357 172.911 257.312 173.092 258.176C173.282 259.042 173.68 259.777 174.284 260.382C174.889 260.986 175.681 261.419 176.662 261.682C177.313 261.856 177.933 261.924 178.523 261.886C179.113 261.847 179.649 261.696 180.133 261.433C180.616 261.169 181.03 260.799 181.374 260.321L186.695 262.13C186.071 263.358 185.203 264.344 184.09 265.087C182.989 265.823 181.697 266.283 180.214 266.465C178.742 266.64 177.136 266.495 175.394 266.028ZM198.452 272.207C196.288 271.627 194.55 270.67 193.238 269.336C191.937 267.995 191.089 266.392 190.695 264.528C190.309 262.666 190.403 260.668 190.975 258.532C191.555 256.369 192.48 254.583 193.751 253.175C195.034 251.76 196.573 250.802 198.368 250.3C200.165 249.79 202.131 249.821 204.267 250.393C206.11 250.886 207.633 251.653 208.838 252.693C210.043 253.733 210.886 254.966 211.369 256.392C211.851 257.818 211.915 259.358 211.56 261.012L206.033 259.531C206.16 258.435 205.975 257.477 205.477 256.656C204.992 255.828 204.213 255.271 203.14 254.983C202.233 254.74 201.374 254.775 200.563 255.088C199.763 255.395 199.051 255.965 198.424 256.8C197.798 257.634 197.307 258.716 196.951 260.045C196.59 261.392 196.466 262.587 196.579 263.629C196.702 264.674 197.037 265.535 197.582 266.212C198.128 266.888 198.854 267.348 199.762 267.591C200.431 267.771 201.068 267.794 201.674 267.662C202.288 267.531 202.839 267.252 203.328 266.823C203.828 266.387 204.232 265.812 204.541 265.099L210.068 266.58C209.544 268.169 208.724 269.472 207.606 270.489C206.501 271.499 205.168 272.164 203.609 272.483C202.05 272.802 200.331 272.71 198.452 272.207ZM221.176 278.295C219.04 277.723 217.315 276.775 216 275.45C214.696 274.118 213.841 272.523 213.435 270.666C213.031 268.799 213.119 266.784 213.699 264.621C214.284 262.439 215.216 260.646 216.497 259.24C217.78 257.825 219.317 256.872 221.109 256.379C222.913 255.88 224.883 255.917 227.019 256.489C229.154 257.061 230.874 258.013 232.178 259.345C233.493 260.67 234.352 262.266 234.756 264.133C235.162 265.99 235.073 268.01 234.488 270.191C233.908 272.354 232.977 274.143 231.694 275.558C230.414 276.964 228.872 277.916 227.068 278.415C225.275 278.908 223.311 278.868 221.176 278.295ZM222.419 273.766C223.391 274.026 224.276 273.968 225.074 273.593C225.874 273.208 226.569 272.579 227.156 271.704C227.753 270.833 228.217 269.783 228.546 268.555C228.875 267.326 228.999 266.186 228.917 265.132C228.845 264.081 228.559 263.189 228.058 262.456C227.557 261.722 226.821 261.225 225.849 260.965C224.868 260.702 223.968 260.761 223.149 261.141C222.34 261.523 221.636 262.15 221.039 263.021C220.451 263.895 219.993 264.947 219.664 266.175C219.334 267.403 219.206 268.543 219.278 269.593C219.359 270.647 219.655 271.541 220.165 272.277C220.687 273.007 221.438 273.503 222.419 273.766ZM242.764 292.598C240.866 292.089 239.309 291.392 238.093 290.506C236.883 289.632 235.998 288.643 235.439 287.54C234.88 286.437 234.63 285.3 234.689 284.127L240.301 284.849C240.353 285.315 240.509 285.779 240.768 286.242C241.027 286.704 241.421 287.124 241.948 287.501C242.483 287.89 243.176 288.199 244.029 288.427C245.303 288.769 246.436 288.738 247.428 288.336C248.426 287.945 249.12 287.026 249.508 285.578L250.543 281.714L250.296 281.648C249.882 282.166 249.348 282.617 248.695 283.002C248.042 283.387 247.267 283.636 246.372 283.75C245.477 283.864 244.471 283.771 243.352 283.471C241.767 283.046 240.421 282.293 239.316 281.211C238.223 280.122 237.495 278.714 237.133 276.986C236.782 275.251 236.92 273.215 237.546 270.878C238.187 268.486 239.112 266.592 240.321 265.196C241.53 263.801 242.887 262.878 244.394 262.427C245.909 261.978 247.441 261.961 248.99 262.376C250.173 262.693 251.108 263.16 251.798 263.777C252.49 264.385 252.999 265.052 253.325 265.778C253.663 266.497 253.888 267.176 254.002 267.816L254.222 267.875L255.172 264.328L260.988 265.886L255.274 287.211C254.793 289.008 253.95 290.393 252.746 291.367C251.542 292.341 250.079 292.922 248.359 293.109C246.645 293.309 244.78 293.138 242.764 292.598ZM246.387 279.569C247.332 279.822 248.192 279.802 248.968 279.509C249.755 279.209 250.441 278.666 251.025 277.879C251.621 277.086 252.085 276.07 252.416 274.833C252.748 273.596 252.861 272.476 252.756 271.476C252.653 270.466 252.339 269.62 251.815 268.939C251.29 268.258 250.555 267.791 249.611 267.538C248.649 267.28 247.767 267.324 246.967 267.67C246.17 268.006 245.479 268.588 244.894 269.413C244.309 270.239 243.856 271.252 243.534 272.453C243.208 273.672 243.095 274.772 243.196 275.752C243.308 276.725 243.625 277.542 244.145 278.202C244.678 278.855 245.425 279.311 246.387 279.569ZM269.119 277.614L265.848 289.823L259.99 288.254L265.649 267.135L271.231 268.631L270.233 272.357L270.481 272.423C271.277 271.32 272.321 270.558 273.613 270.138C274.907 269.709 276.337 269.704 277.905 270.124C279.371 270.517 280.564 271.18 281.483 272.114C282.402 273.048 283.004 274.192 283.29 275.546C283.578 276.89 283.502 278.383 283.062 280.024L279.459 293.47L273.602 291.901L276.925 279.499C277.281 278.209 277.221 277.112 276.746 276.209C276.273 275.296 275.45 274.683 274.277 274.369C273.489 274.157 272.747 274.14 272.051 274.317C271.364 274.497 270.764 274.867 270.25 275.426C269.749 275.98 269.371 276.709 269.119 277.614ZM284.076 294.707L289.735 273.588L295.592 275.158L289.933 296.277L284.076 294.707ZM293.406 271.654C292.536 271.421 291.866 270.932 291.397 270.188C290.94 269.437 290.821 268.653 291.04 267.837C291.256 267.031 291.748 266.421 292.517 266.008C293.298 265.588 294.123 265.495 294.994 265.729C295.865 265.962 296.529 266.454 296.986 267.205C297.454 267.95 297.581 268.725 297.364 269.532C297.146 270.348 296.646 270.965 295.866 271.385C295.097 271.798 294.277 271.888 293.406 271.654ZM311.517 279.425L310.338 283.825L297.62 280.417L298.799 276.017L311.517 279.425ZM303.042 271.731L308.899 273.301L303.623 292.99C303.478 293.53 303.448 293.974 303.532 294.321C303.618 294.658 303.792 294.926 304.054 295.124C304.324 295.324 304.657 295.477 305.051 295.582C305.326 295.656 305.607 295.707 305.894 295.735C306.184 295.753 306.406 295.769 306.56 295.78L306.313 300.386C305.995 300.399 305.554 300.394 304.991 300.37C304.425 300.356 303.758 300.261 302.99 300.085C301.563 299.761 300.376 299.242 299.428 298.526C298.49 297.813 297.849 296.924 297.505 295.859C297.162 294.795 297.18 293.572 297.56 292.19L303.042 271.731ZM309.673 301.566L315.332 280.447L321.189 282.017L315.531 303.136L309.673 301.566ZM319.004 278.513C318.133 278.28 317.464 277.791 316.995 277.047C316.538 276.295 316.419 275.512 316.637 274.696C316.854 273.89 317.346 273.28 318.115 272.867C318.895 272.447 319.721 272.354 320.592 272.587C321.463 272.821 322.127 273.313 322.583 274.064C323.052 274.809 323.178 275.584 322.962 276.391C322.744 277.207 322.244 277.824 321.464 278.244C320.695 278.657 319.875 278.747 319.004 278.513ZM329.654 307.362C327.518 306.79 325.793 305.841 324.478 304.516C323.174 303.185 322.32 301.59 321.913 299.732C321.51 297.866 321.598 295.851 322.177 293.687C322.762 291.506 323.694 289.712 324.975 288.307C326.258 286.892 327.795 285.938 329.588 285.446C331.392 284.947 333.361 284.983 335.497 285.556C337.633 286.128 339.352 287.08 340.656 288.412C341.971 289.737 342.83 291.333 343.234 293.199C343.64 295.057 343.551 297.076 342.966 299.258C342.387 301.421 341.455 303.21 340.172 304.625C338.892 306.03 337.35 306.983 335.546 307.482C333.754 307.974 331.79 307.934 329.654 307.362ZM330.897 302.832C331.869 303.093 332.754 303.035 333.552 302.659C334.353 302.275 335.047 301.645 335.635 300.771C336.232 299.9 336.695 298.85 337.024 297.621C337.353 296.393 337.477 295.252 337.396 294.199C337.324 293.148 337.037 292.256 336.536 291.522C336.035 290.789 335.299 290.292 334.327 290.032C333.346 289.769 332.447 289.827 331.628 290.207C330.818 290.589 330.114 291.216 329.517 292.088C328.93 292.962 328.471 294.013 328.142 295.241C327.813 296.47 327.684 297.609 327.756 298.66C327.838 299.713 328.133 300.608 328.643 301.344C329.165 302.073 329.917 302.569 330.897 302.832ZM353.096 300.115L349.825 312.325L343.968 310.755L349.626 289.636L355.209 291.132L354.21 294.858L354.458 294.925C355.254 293.822 356.298 293.06 357.59 292.64C358.884 292.21 360.314 292.206 361.882 292.626C363.348 293.019 364.541 293.682 365.46 294.616C366.379 295.55 366.981 296.694 367.267 298.047C367.555 299.392 367.479 300.884 367.04 302.525L363.437 315.972L357.579 314.403L360.902 302.001C361.258 300.711 361.198 299.614 360.723 298.711C360.25 297.798 359.427 297.185 358.254 296.87C357.466 296.659 356.724 296.642 356.028 296.819C355.341 296.998 354.741 297.368 354.228 297.928C353.726 298.481 353.349 299.21 353.096 300.115Z" fill="black"/>
<path d="M120.484 277.715C122.465 276.687 131.249 275.936 143.365 271.766C147.654 270.291 151.401 269.995 155.101 269.814C159.019 269.623 163.898 279.506 169.724 286.802C173.648 291.716 183.386 285.595 191.22 285.35C200.298 285.067 207.534 295.135 214.2 303.178C220.819 311.163 234.054 300.741 243.803 303.717C246.662 304.589 247.95 308.308 250.274 310.125C261.743 319.095 283.866 312.518 294.789 315.24C299.269 316.356 301.725 320.01 304.092 323.187C310.429 331.691 327.673 321.14 336.127 323.381C347.12 326.297 349.061 334.662 353.913 335.775C356.873 335.994 360.841 335.51 365.455 333.63C370.069 331.75 375.208 328.487 380.504 325.126" stroke="#005DFF" stroke-width="1.67016" stroke-linecap="round"/>
<path d="M474.442 250.386L481.969 249.328L492.645 267.607L492.983 267.559L498.208 247.046L505.735 245.988L509.792 274.856L503.872 275.688L501.231 256.899L500.991 256.932L496.141 276.631L492.11 277.198L482.009 259.528L481.769 259.562L484.42 278.422L478.499 279.254L474.442 250.386ZM524.634 273.202C522.407 273.515 520.427 273.333 518.693 272.657C516.967 271.97 515.555 270.855 514.457 269.313C513.357 267.762 512.647 265.845 512.326 263.561C512.013 261.334 512.171 259.319 512.799 257.515C513.427 255.712 514.46 254.23 515.897 253.069C517.344 251.908 519.129 251.178 521.253 250.879C522.681 250.679 524.043 250.722 525.339 251.009C526.643 251.286 527.819 251.816 528.868 252.598C529.927 253.378 530.811 254.423 531.522 255.732C532.232 257.031 532.716 258.602 532.975 260.444L533.207 262.093L514.925 264.662L514.402 260.941L527.031 259.166C526.91 258.301 526.614 257.562 526.145 256.948C525.675 256.333 525.08 255.885 524.36 255.603C523.648 255.31 522.855 255.225 521.981 255.348C521.07 255.476 520.291 255.801 519.646 256.323C519.009 256.834 518.542 257.47 518.247 258.23C517.95 258.981 517.857 259.785 517.967 260.641L518.465 264.179C518.615 265.25 518.943 266.148 519.447 266.873C519.961 267.596 520.614 268.118 521.406 268.437C522.199 268.757 523.097 268.847 524.103 268.705C524.77 268.611 525.368 268.432 525.896 268.166C526.424 267.9 526.859 267.551 527.201 267.12C527.542 266.689 527.778 266.186 527.909 265.612L533.514 265.198C533.419 266.572 533.005 267.818 532.271 268.937C531.545 270.045 530.536 270.973 529.241 271.72C527.955 272.457 526.42 272.951 524.634 273.202ZM538.431 270.831L535.388 249.18L541.111 248.376L541.648 252.196L541.902 252.16C542.174 250.828 542.785 249.722 543.735 248.841C544.684 247.96 545.892 247.416 547.358 247.21C548.843 247.002 550.159 247.195 551.306 247.791C552.452 248.378 553.288 249.276 553.812 250.486L554.038 250.455C554.305 249.152 554.965 248.048 556.016 247.144C557.076 246.228 558.4 245.659 559.988 245.435C562.008 245.152 563.739 245.565 565.179 246.675C566.627 247.775 567.516 249.499 567.846 251.849L569.893 266.41L563.902 267.252L562.022 253.875C561.853 252.672 561.407 251.815 560.683 251.303C559.96 250.791 559.119 250.603 558.16 250.738C557.07 250.891 556.268 251.358 555.755 252.139C555.241 252.911 555.063 253.861 555.221 254.989L557.08 268.21L551.258 269.029L549.36 255.525C549.211 254.463 548.787 253.66 548.087 253.116C547.398 252.571 546.559 252.368 545.573 252.507C544.905 252.601 544.328 252.854 543.84 253.268C543.36 253.671 543.007 254.195 542.781 254.84C542.554 255.475 542.497 256.192 542.609 256.991L544.436 269.987L538.431 270.831ZM574.749 265.727L570.692 236.859L576.696 236.015L578.222 246.869L578.405 246.843C578.586 246.224 578.884 245.578 579.297 244.907C579.719 244.224 580.305 243.625 581.057 243.107C581.816 242.579 582.802 242.229 584.014 242.059C585.593 241.837 587.108 242.046 588.558 242.685C590.007 243.315 591.248 244.401 592.279 245.943C593.309 247.475 593.998 249.481 594.347 251.962C594.686 254.377 594.583 256.471 594.037 258.244C593.498 260.006 592.622 261.409 591.408 262.452C590.202 263.484 588.777 264.115 587.132 264.346C585.967 264.51 584.948 264.457 584.077 264.186C583.214 263.915 582.484 263.524 581.885 263.014C581.285 262.494 580.806 261.953 580.449 261.39L580.182 261.428L580.669 264.895L574.749 265.727ZM579.105 254.076C579.286 255.363 579.623 256.461 580.114 257.369C580.606 258.277 581.228 258.952 581.98 259.392C582.73 259.824 583.59 259.971 584.558 259.835C585.535 259.698 586.324 259.314 586.925 258.683C587.525 258.043 587.932 257.219 588.145 256.212C588.366 255.194 588.388 254.055 588.211 252.796C588.035 251.546 587.707 250.471 587.226 249.571C586.745 248.67 586.128 248 585.377 247.559C584.625 247.119 583.755 246.968 582.769 247.107C581.791 247.244 581.001 247.619 580.397 248.231C579.802 248.841 579.393 249.646 579.169 250.645C578.946 251.645 578.924 252.788 579.105 254.076ZM609.797 261.233C607.57 261.546 605.59 261.364 603.856 260.688C602.13 260.001 600.719 258.886 599.62 257.345C598.521 255.793 597.81 253.876 597.489 251.592C597.176 249.365 597.334 247.35 597.962 245.546C598.59 243.743 599.623 242.261 601.06 241.101C602.507 239.939 604.292 239.209 606.416 238.91C607.844 238.71 609.206 238.753 610.502 239.04C611.806 239.317 612.982 239.847 614.031 240.629C615.09 241.41 615.974 242.454 616.685 243.763C617.395 245.062 617.879 246.633 618.138 248.475L618.37 250.124L600.088 252.693L599.565 248.972L612.195 247.197C612.073 246.333 611.777 245.593 611.308 244.979C610.838 244.364 610.243 243.916 609.523 243.634C608.811 243.341 608.018 243.256 607.144 243.379C606.233 243.507 605.454 243.832 604.809 244.354C604.172 244.865 603.705 245.501 603.41 246.261C603.113 247.012 603.02 247.816 603.131 248.672L603.628 252.21C603.778 253.282 604.106 254.179 604.61 254.904C605.124 255.627 605.777 256.149 606.569 256.469C607.362 256.788 608.261 256.878 609.266 256.736C609.933 256.643 610.531 256.463 611.059 256.197C611.587 255.931 612.022 255.582 612.364 255.151C612.706 254.72 612.942 254.217 613.072 253.643L618.677 253.229C618.583 254.603 618.168 255.849 617.434 256.968C616.709 258.076 615.699 259.004 614.405 259.751C613.119 260.488 611.583 260.982 609.797 261.233ZM623.594 258.862L620.551 237.211L626.373 236.393L626.904 240.171L627.129 240.139C627.335 238.74 627.855 237.632 628.689 236.815C629.521 235.989 630.544 235.491 631.756 235.32C632.057 235.278 632.384 235.251 632.737 235.24C633.09 235.229 633.402 235.238 633.675 235.266L634.423 240.595C634.13 240.55 633.729 240.529 633.222 240.533C632.714 240.538 632.254 240.569 631.841 240.627C630.957 240.751 630.195 241.055 629.554 241.538C628.921 242.01 628.45 242.613 628.141 243.346C627.841 244.078 627.753 244.886 627.877 245.769L629.599 258.018L623.594 258.862ZM662.91 223.899L669.013 223.041L671.648 241.788C671.944 243.893 671.7 245.806 670.916 247.526C670.142 249.244 668.919 250.672 667.249 251.807C665.577 252.933 663.547 253.664 661.16 254C658.764 254.336 656.607 254.194 654.689 253.572C652.77 252.941 651.202 251.906 649.984 250.468C648.766 249.029 648.009 247.257 647.713 245.152L645.078 226.405L651.182 225.547L653.743 243.773C653.898 244.872 654.275 245.816 654.874 246.604C655.483 247.39 656.264 247.966 657.216 248.33C658.168 248.695 659.231 248.794 660.406 248.629C661.59 248.463 662.584 248.074 663.39 247.462C664.204 246.85 664.791 246.082 665.15 245.159C665.519 244.236 665.626 243.224 665.471 242.124L662.91 223.899ZM679.12 259.338L674.936 229.568L680.856 228.736L681.368 232.373L681.635 232.335C681.817 231.715 682.114 231.07 682.527 230.399C682.949 229.716 683.536 229.116 684.287 228.599C685.046 228.07 686.032 227.721 687.244 227.551C688.823 227.329 690.338 227.538 691.788 228.177C693.238 228.807 694.478 229.893 695.509 231.435C696.539 232.967 697.228 234.973 697.577 237.454C697.916 239.869 697.813 241.963 697.267 243.736C696.729 245.498 695.853 246.901 694.638 247.943C693.432 248.975 692.007 249.607 690.362 249.838C689.197 250.002 688.179 249.949 687.307 249.678C686.445 249.406 685.714 249.016 685.115 248.506C684.515 247.986 684.037 247.445 683.68 246.882L683.497 246.908L685.125 258.494L679.12 259.338ZM682.336 239.567C682.516 240.855 682.853 241.953 683.345 242.861C683.836 243.769 684.458 244.444 685.21 244.884C685.961 245.316 686.82 245.463 687.788 245.327C688.765 245.19 689.554 244.806 690.156 244.175C690.756 243.535 691.162 242.711 691.375 241.704C691.596 240.686 691.618 239.547 691.441 238.288C691.266 237.038 690.937 235.963 690.456 235.063C689.975 234.162 689.359 233.492 688.607 233.051C687.855 232.611 686.986 232.46 685.999 232.599C685.022 232.736 684.231 233.111 683.627 233.723C683.033 234.333 682.623 235.138 682.4 236.137C682.176 237.137 682.155 238.28 682.336 239.567ZM711.125 246.92C709.481 247.151 707.932 246.938 706.479 246.279C705.034 245.61 703.805 244.504 702.792 242.96C701.788 241.405 701.116 239.42 700.777 237.004C700.428 234.524 700.538 232.405 701.105 230.648C701.672 228.882 702.56 227.497 703.77 226.493C704.988 225.479 706.391 224.86 707.979 224.637C709.192 224.466 710.231 224.531 711.097 224.831C711.971 225.12 712.701 225.535 713.284 226.076C713.876 226.606 714.345 227.144 714.69 227.69L714.873 227.664L713.348 216.81L719.338 215.968L723.396 244.836L717.475 245.668L716.988 242.201L716.734 242.236C716.537 242.877 716.221 243.53 715.788 244.195C715.362 244.849 714.768 245.426 714.004 245.926C713.25 246.425 712.291 246.756 711.125 246.92ZM712.357 241.874C713.325 241.738 714.105 241.36 714.699 240.74C715.3 240.109 715.712 239.29 715.934 238.281C716.166 237.271 716.191 236.122 716.01 234.835C715.829 233.547 715.494 232.454 715.003 231.555C714.513 230.656 713.893 229.996 713.144 229.574C712.394 229.152 711.536 229.01 710.568 229.146C709.581 229.284 708.787 229.669 708.186 230.3C707.585 230.93 707.177 231.745 706.962 232.743C706.748 233.741 706.729 234.865 706.904 236.115C707.081 237.374 707.412 238.463 707.896 239.382C708.387 240.29 709.005 240.97 709.749 241.421C710.501 241.862 711.37 242.013 712.357 241.874ZM734.564 243.683C733.183 243.878 731.918 243.811 730.77 243.484C729.621 243.147 728.664 242.548 727.901 241.687C727.146 240.816 726.669 239.666 726.468 238.238C726.299 237.035 726.378 235.994 726.704 235.114C727.031 234.235 727.54 233.492 728.231 232.887C728.923 232.282 729.734 231.785 730.667 231.395C731.608 231.004 732.607 230.681 733.664 230.428C734.905 230.119 735.903 229.854 736.657 229.633C737.411 229.403 737.945 229.146 738.259 228.862C738.574 228.578 738.699 228.206 738.634 227.745L738.622 227.661C738.497 226.768 738.118 226.117 737.486 225.708C736.862 225.297 736.039 225.163 735.014 225.307C733.934 225.459 733.108 225.82 732.536 226.389C731.963 226.949 731.623 227.6 731.517 228.343L725.9 228.673C725.997 227.317 726.391 226.102 727.084 225.028C727.775 223.944 728.737 223.051 729.97 222.351C731.212 221.64 732.697 221.163 734.427 220.92C735.629 220.751 736.8 220.73 737.939 220.857C739.088 220.983 740.131 221.282 741.07 221.754C742.017 222.225 742.806 222.89 743.434 223.75C744.062 224.601 744.466 225.67 744.647 226.958L746.699 241.561L741.005 242.361L740.583 239.359L740.414 239.383C740.161 240.108 739.78 240.77 739.27 241.369C738.758 241.958 738.114 242.456 737.338 242.862C736.56 243.259 735.635 243.533 734.564 243.683ZM735.701 239.298C736.585 239.173 737.34 238.89 737.968 238.447C738.594 237.995 739.058 237.441 739.359 236.786C739.659 236.13 739.756 235.422 739.649 234.66L739.326 232.363C739.156 232.511 738.913 232.661 738.599 232.81C738.292 232.949 737.943 233.089 737.551 233.23C737.157 233.362 736.763 233.49 736.368 233.612C735.972 233.725 735.613 233.829 735.291 233.922C734.601 234.124 734.008 234.375 733.514 234.675C733.019 234.974 732.653 235.337 732.416 235.763C732.178 236.18 732.098 236.67 732.177 237.234C732.292 238.052 732.676 238.635 733.329 238.984C733.99 239.323 734.78 239.427 735.701 239.298ZM759.831 217.637L760.465 222.147L747.427 223.98L746.793 219.469L759.831 217.637ZM749.024 213.866L755.029 213.022L757.866 233.207C757.944 233.762 758.089 234.182 758.302 234.468C758.513 234.745 758.778 234.924 759.096 235.004C759.423 235.082 759.788 235.093 760.193 235.036C760.474 234.997 760.753 234.934 761.028 234.847C761.302 234.751 761.513 234.678 761.659 234.629L763.231 238.965C762.944 239.101 762.536 239.268 762.008 239.467C761.482 239.675 760.83 239.848 760.054 239.986C758.615 240.246 757.32 240.231 756.167 239.943C755.025 239.653 754.087 239.085 753.355 238.24C752.623 237.394 752.162 236.261 751.972 234.84L749.024 213.866ZM776.48 237.807C774.253 238.12 772.272 237.938 770.539 237.262C768.813 236.575 767.401 235.461 766.303 233.919C765.203 232.368 764.493 230.45 764.172 228.167C763.859 225.94 764.016 223.924 764.645 222.121C765.273 220.317 766.305 218.835 767.743 217.675C769.189 216.513 770.974 215.783 773.098 215.485C774.527 215.284 775.889 215.327 777.184 215.615C778.488 215.892 779.665 216.421 780.714 217.203C781.772 217.984 782.657 219.029 783.368 220.337C784.077 221.637 784.562 223.207 784.821 225.049L785.052 226.698L766.77 229.268L766.247 225.546L778.877 223.771C778.755 222.907 778.46 222.167 777.99 221.553C777.521 220.939 776.926 220.49 776.206 220.208C775.494 219.916 774.701 219.831 773.827 219.953C772.915 220.081 772.137 220.406 771.492 220.928C770.854 221.44 770.388 222.075 770.092 222.836C769.795 223.586 769.702 224.39 769.813 225.247L770.31 228.785C770.461 229.856 770.788 230.754 771.292 231.478C771.806 232.201 772.459 232.723 773.252 233.043C774.044 233.363 774.943 233.452 775.948 233.311C776.616 233.217 777.213 233.037 777.741 232.771C778.269 232.505 778.704 232.157 779.046 231.725C779.388 231.294 779.624 230.791 779.754 230.217L785.359 229.803C785.265 231.177 784.851 232.424 784.117 233.543C783.391 234.651 782.381 235.579 781.087 236.326C779.801 237.062 778.265 237.556 776.48 237.807ZM806.116 217.428L800.666 218.539C800.506 218.082 800.244 217.688 799.882 217.355C799.517 217.014 799.066 216.766 798.526 216.611C797.995 216.446 797.382 216.413 796.687 216.511C795.756 216.641 794.999 216.949 794.416 217.433C793.831 217.909 793.584 218.47 793.675 219.119C793.748 219.636 794.016 220.043 794.48 220.342C794.943 220.641 795.693 220.828 796.729 220.903L800.759 221.142C802.924 221.278 804.591 221.753 805.76 222.566C806.928 223.38 807.622 224.566 807.841 226.126C808.041 227.545 807.798 228.849 807.112 230.038C806.435 231.225 805.416 232.221 804.053 233.026C802.699 233.82 801.082 234.349 799.202 234.614C796.336 235.016 793.969 234.741 792.1 233.786C790.24 232.821 789.018 231.325 788.436 229.299L794.299 228.159C794.6 229.008 795.126 229.614 795.877 229.978C796.626 230.333 797.537 230.435 798.608 230.284C799.661 230.136 800.478 229.815 801.06 229.321C801.65 228.817 801.905 228.24 801.823 227.59C801.737 227.046 801.444 226.632 800.944 226.348C800.443 226.054 799.709 225.879 798.743 225.824L794.889 225.603C792.715 225.478 791.038 224.966 789.857 224.068C788.687 223.169 787.988 221.911 787.76 220.295C787.565 218.904 787.772 217.653 788.383 216.542C789.003 215.43 789.96 214.504 791.256 213.767C792.561 213.027 794.139 212.528 795.99 212.268C798.724 211.883 800.958 212.159 802.689 213.094C804.43 214.028 805.573 215.473 806.116 217.428Z" fill="black"/>
<path d="M468.036 306.906C470.123 305.093 481.263 300.499 495.077 291.323C499.966 288.076 504.731 286.138 509.49 284.326C514.53 282.408 525.818 289.185 537.067 293.199C544.642 295.902 554.374 286.018 564.519 282.306C576.275 278.005 590.745 283.901 603.464 288.216C616.093 292.5 628.276 277.163 642.527 275.515C646.705 275.031 650.235 277.825 654.181 278.437C673.653 281.452 699.389 265.637 715.051 263.236C721.476 262.251 726.503 264.467 731.179 266.29C743.696 271.169 761.069 253.929 773.258 252.193C789.109 249.935 795.795 256.648 802.705 255.494C806.692 254.374 811.653 252.168 816.769 248.409C821.885 244.65 827.004 239.405 832.279 234.001" stroke="#029D56" stroke-width="1.67016" stroke-linecap="round"/>
<path d="M555.431 20.8537L561.308 43.3407L561.578 43.3549L569.787 21.6062L576.611 21.9637L565.049 50.5497L557.117 50.134L548.593 20.4954L555.431 20.8537ZM585.855 52.0677C583.647 51.952 581.762 51.3828 580.2 50.3602C578.648 49.3286 577.481 47.9466 576.697 46.2141C575.914 44.4721 575.582 42.4828 575.699 40.2464C575.817 37.991 576.356 36.0427 577.316 34.4016C578.277 32.751 579.583 31.4985 581.234 30.6443C582.894 29.7811 584.829 29.4073 587.037 29.523C589.245 29.6388 591.125 30.2124 592.676 31.244C594.238 32.2666 595.411 33.6489 596.194 35.3909C596.977 37.1234 597.31 39.1174 597.191 41.3728C597.074 43.6092 596.535 45.5528 595.575 47.2034C594.614 48.8445 593.304 50.0967 591.643 50.9599C589.993 51.8141 588.063 52.1834 585.855 52.0677ZM586.129 47.3783C587.134 47.4309 587.987 47.1906 588.69 46.6573C589.393 46.1145 589.941 45.3545 590.335 44.3773C590.738 43.4007 590.972 42.2774 591.039 41.0076C591.105 39.7377 590.989 38.5961 590.691 37.5827C590.402 36.5697 589.936 35.7566 589.294 35.1433C588.651 34.53 587.827 34.197 586.823 34.1443C585.809 34.0912 584.941 34.3355 584.219 34.8773C583.506 35.4196 582.949 36.1791 582.546 37.1558C582.152 38.1329 581.923 39.2565 581.856 40.5263C581.789 41.7962 581.901 42.9375 582.19 43.9505C582.488 44.9639 582.963 45.7775 583.615 46.3913C584.277 46.9962 585.115 47.3252 586.129 47.3783ZM608.143 23.6163L606.617 52.7281L600.561 52.4108L602.087 23.2989L608.143 23.6163ZM625.956 44.4197L626.613 31.8822L632.669 32.1996L631.525 54.0335L625.711 53.7288L625.919 49.7629L625.691 49.751C625.131 51.0045 624.258 51.9897 623.07 52.7067C621.893 53.4242 620.484 53.74 618.844 53.654C617.385 53.5776 616.118 53.1786 615.044 52.4571C613.97 51.7357 613.153 50.7473 612.591 49.4921C612.039 48.2373 611.803 46.7568 611.883 45.0505L612.612 31.1485L618.667 31.4658L617.995 44.2875C617.937 45.5769 618.23 46.6137 618.873 47.3981C619.516 48.1825 620.411 48.6048 621.558 48.6649C622.287 48.7031 622.978 48.573 623.631 48.2746C624.283 47.9667 624.821 47.4913 625.245 46.8483C625.677 46.2058 625.915 45.3963 625.956 44.4197ZM643.085 41.982L642.424 54.6047L636.368 54.2874L637.513 32.4534L643.284 32.7559L643.082 36.6081L643.338 36.6215C643.888 35.377 644.751 34.4149 645.926 33.7354C647.103 33.0463 648.501 32.7443 650.122 32.8292C651.638 32.9087 652.943 33.3096 654.036 34.0321C655.129 34.7545 655.955 35.7481 656.516 37.0128C657.078 38.2681 657.314 39.7439 657.225 41.4402L656.497 55.3422L650.441 55.0249L651.113 42.2031C651.192 40.8674 650.906 39.8071 650.253 39.0222C649.601 38.2279 648.669 37.7989 647.456 37.7353C646.641 37.6926 645.911 37.8302 645.268 38.148C644.633 38.4664 644.123 38.9528 643.737 39.6073C643.361 40.2527 643.144 41.0443 643.085 41.982ZM674.027 34.3671L673.788 38.9158L660.64 38.2267L660.878 33.678L674.027 34.3671ZM664.137 28.6034L670.193 28.9207L669.126 49.2763C669.097 49.8354 669.159 50.2758 669.313 50.5975C669.468 50.9097 669.694 51.1353 669.991 51.2744C670.297 51.414 670.654 51.4945 671.061 51.5158C671.346 51.5307 671.631 51.5219 671.918 51.4894C672.205 51.4475 672.425 51.4163 672.579 51.3958L673.295 55.9518C672.987 56.0306 672.554 56.1173 671.998 56.2117C671.442 56.3155 670.769 56.3611 669.981 56.3483C668.519 56.3286 667.25 56.0673 666.174 55.5643C665.107 55.0618 664.296 54.3256 663.738 53.3556C663.181 52.3857 662.944 51.1854 663.029 49.755L664.137 28.6034ZM686.521 57.3433C684.275 57.2256 682.365 56.6695 680.793 55.6748C679.23 54.6711 678.056 53.3078 677.272 51.5847C676.489 49.8522 676.158 47.8346 676.278 45.5318C676.396 43.2858 676.935 41.3376 677.896 39.687C678.857 38.0364 680.153 36.7787 681.785 35.914C683.427 35.0498 685.319 34.6738 687.461 34.786C688.901 34.8615 690.23 35.164 691.447 35.6934C692.674 36.2138 693.728 36.958 694.608 37.9259C695.498 38.8943 696.167 40.0886 696.615 41.509C697.064 42.9199 697.24 44.554 697.143 46.4114L697.055 48.0746L678.619 47.1083L678.815 43.3556L691.552 44.0231C691.598 43.1513 691.449 42.369 691.105 41.6763C690.761 40.9836 690.263 40.4301 689.61 40.0158C688.967 39.5925 688.204 39.3577 687.323 39.3115C686.404 39.2634 685.578 39.4339 684.845 39.8231C684.122 40.2033 683.542 40.7383 683.107 41.4282C682.672 42.1086 682.428 42.8798 682.373 43.7416L682.186 47.3095C682.129 48.3899 682.279 49.3337 682.636 50.1411C683.002 50.949 683.544 51.5856 684.261 52.0508C684.978 52.516 685.843 52.7751 686.857 52.8283C687.53 52.8635 688.151 52.801 688.72 52.6408C689.289 52.4806 689.782 52.2214 690.2 51.8632C690.618 51.505 690.946 51.0565 691.183 50.5178L696.764 51.1809C696.409 52.5117 695.765 53.6562 694.831 54.6145C693.907 55.5639 692.739 56.2818 691.326 56.7685C689.923 57.2461 688.321 57.4377 686.521 57.3433ZM710.444 58.5971C708.198 58.4794 706.289 57.9232 704.716 56.9286C703.153 55.9249 701.98 54.5616 701.196 52.8385C700.412 51.106 700.081 49.0884 700.202 46.7856C700.319 44.5396 700.859 42.5914 701.819 40.9407C702.78 39.2901 704.077 38.0325 705.709 37.1678C707.351 36.3036 709.242 35.9276 711.384 36.0398C712.824 36.1153 714.153 36.4177 715.37 36.9472C716.597 37.4676 717.651 38.2117 718.532 39.1796C719.422 40.148 720.091 41.3424 720.539 42.7628C720.988 44.1737 721.163 45.8078 721.066 47.6652L720.979 49.3283L702.542 48.3621L702.739 44.6094L715.475 45.2769C715.521 44.4051 715.372 43.6228 715.028 42.9301C714.684 42.2374 714.186 41.6839 713.533 41.2696C712.89 40.8463 712.128 40.6115 711.247 40.5653C710.327 40.5171 709.501 40.6877 708.768 41.0769C708.045 41.4571 707.466 41.9921 707.031 42.682C706.596 43.3624 706.351 44.1335 706.296 44.9954L706.109 48.5633C706.053 49.6436 706.203 50.5875 706.56 51.3949C706.926 52.2028 707.468 52.8394 708.184 53.3046C708.901 53.7697 709.767 54.0289 710.781 54.082C711.453 54.1173 712.074 54.0548 712.643 53.8946C713.212 53.7344 713.706 53.4751 714.124 53.1169C714.542 52.7587 714.869 52.3103 715.107 51.7716L720.688 52.4347C720.333 53.7654 719.689 54.91 718.755 55.8683C717.831 56.8176 716.662 57.5356 715.249 58.0222C713.846 58.4999 712.245 58.6915 710.444 58.5971ZM724.44 58.903L725.584 37.0691L731.455 37.3767L731.255 41.1863L731.482 41.1982C731.951 39.8639 732.673 38.8755 733.648 38.2329C734.623 37.5808 735.721 37.2868 736.944 37.3508C737.247 37.3667 737.573 37.4028 737.922 37.4591C738.27 37.5154 738.575 37.5836 738.837 37.6639L738.556 43.0371C738.276 42.9369 737.887 42.8404 737.388 42.7478C736.889 42.6551 736.431 42.5979 736.014 42.576C735.123 42.5293 734.317 42.6819 733.596 43.0337C732.884 43.3765 732.306 43.8784 731.863 44.5393C731.429 45.2008 731.189 45.9769 731.142 46.8677L730.495 59.2203L724.44 58.903ZM750.197 60.2529L751.723 31.141L763.208 31.7429C765.416 31.8586 767.275 32.3789 768.785 33.3038C770.295 34.2192 771.419 35.4421 772.156 36.9726C772.903 38.4942 773.226 40.2216 773.125 42.1548C773.023 44.088 772.517 45.7719 771.606 47.2065C770.694 48.6412 769.426 49.7292 767.8 50.4708C766.183 51.2128 764.257 51.5252 762.021 51.408L754.7 51.0243L754.959 46.0918L761.284 46.4233C762.469 46.4854 763.455 46.3328 764.244 45.9655C765.043 45.5893 765.651 45.0462 766.069 44.3364C766.496 43.6176 766.735 42.7796 766.785 41.8225C766.836 40.8559 766.685 40.0023 766.335 39.2617C765.994 38.5122 765.445 37.918 764.689 37.4793C763.933 37.0311 762.959 36.7757 761.765 36.7131L757.614 36.4956L756.352 60.5754L750.197 60.2529ZM776 61.6052L777.144 39.7712L783.015 40.0789L782.816 43.8885L783.043 43.9004C783.512 42.5661 784.234 41.5777 785.208 40.935C786.183 40.2829 787.282 39.9889 788.504 40.053C788.807 40.0689 789.133 40.105 789.482 40.1613C789.831 40.2175 790.136 40.2858 790.398 40.366L790.116 45.7392C789.836 45.639 789.447 45.5426 788.948 45.45C788.45 45.3573 787.992 45.3001 787.575 45.2782C786.684 45.2315 785.878 45.3841 785.156 45.7359C784.444 46.0787 783.867 46.5805 783.424 47.2415C782.99 47.9029 782.75 48.6791 782.703 49.5699L782.056 61.9225L776 61.6052ZM792.379 62.4635L793.523 40.6296L799.579 40.947L798.435 62.7809L792.379 62.4635ZM796.713 37.9745C795.813 37.9273 795.056 37.5884 794.443 36.9576C793.84 36.3178 793.56 35.5762 793.604 34.7328C793.648 33.8989 794.003 33.2 794.669 32.6363C795.346 32.0635 796.134 31.8008 797.034 31.848C797.934 31.8951 798.686 32.2386 799.289 32.8784C799.902 33.5092 800.187 34.2415 800.143 35.0755C800.099 35.9189 799.739 36.627 799.063 37.1997C798.396 37.7634 797.613 38.0217 796.713 37.9745ZM813.128 63.9786C810.92 63.8628 809.035 63.2937 807.473 62.2711C805.922 61.2395 804.754 59.8574 803.97 58.1249C803.187 56.3829 802.855 54.3937 802.972 52.1573C803.09 49.9018 803.629 47.9536 804.589 46.3124C805.55 44.6618 806.856 43.4094 808.507 42.5552C810.167 41.6919 812.102 41.3182 814.31 41.4339C816.518 41.5496 818.398 42.1233 819.95 43.1549C821.511 44.1775 822.684 45.5598 823.467 47.3018C824.25 49.0343 824.583 51.0282 824.465 53.2836C824.347 55.5201 823.808 57.4636 822.848 59.1142C821.887 60.7554 820.577 62.0076 818.916 62.8708C817.266 63.725 815.336 64.0943 813.128 63.9786ZM813.402 59.2892C814.407 59.3418 815.261 59.1015 815.963 58.5681C816.666 58.0253 817.215 57.2654 817.608 56.2882C818.011 55.3115 818.245 54.1883 818.312 52.9184C818.378 51.6486 818.262 50.5069 817.964 49.4935C817.675 48.4806 817.209 47.6675 816.567 47.0542C815.924 46.4408 815.101 46.1079 814.096 46.0552C813.082 46.0021 812.214 46.2464 811.492 46.7882C810.779 47.3305 810.222 48.09 809.819 49.0667C809.426 50.0438 809.196 51.1673 809.129 52.4372C809.063 53.707 809.174 54.8484 809.463 55.8613C809.761 56.8747 810.236 57.6884 810.889 58.3022C811.55 58.907 812.388 59.236 813.402 59.2892ZM827.834 64.3217L828.979 42.4878L834.849 42.7954L834.65 46.605L834.877 46.6169C835.346 45.2826 836.068 44.2942 837.042 43.6516C838.017 42.9995 839.116 42.7054 840.338 42.7695C840.642 42.7854 840.968 42.8215 841.316 42.8778C841.665 42.9341 841.97 43.0023 842.232 43.0826L841.95 48.4558C841.671 48.3556 841.281 48.2591 840.783 48.1665C840.284 48.0738 839.826 48.0166 839.409 47.9947C838.518 47.948 837.712 48.1006 836.99 48.4524C836.279 48.7952 835.701 49.2971 835.258 49.958C834.824 50.6195 834.584 51.3956 834.537 52.2864L833.89 64.639L827.834 64.3217ZM844.213 65.1801L845.358 43.3461L851.413 43.6635L850.269 65.4974L844.213 65.1801ZM848.547 40.691C847.647 40.6439 846.89 40.3049 846.277 39.6741C845.674 39.0343 845.394 38.2927 845.439 37.4493C845.482 36.6154 845.837 35.9165 846.504 35.3528C847.18 34.7801 847.968 34.5173 848.868 34.5645C849.768 34.6116 850.52 34.9551 851.123 35.5949C851.736 36.2257 852.021 36.9581 851.977 37.792C851.933 38.6354 851.573 39.3435 850.897 39.9162C850.231 40.4799 849.447 40.7382 848.547 40.691ZM867.877 44.5264L867.639 49.0751L854.49 48.386L854.729 43.8373L867.877 44.5264ZM857.988 38.7627L864.044 39.08L862.977 59.4356C862.947 59.9947 863.01 60.4351 863.164 60.7568C863.319 61.069 863.544 61.2946 863.841 61.4337C864.148 61.5733 864.504 61.6537 864.912 61.6751C865.196 61.69 865.482 61.6812 865.769 61.6487C866.056 61.6067 866.276 61.5755 866.429 61.555L867.145 66.111C866.837 66.1899 866.405 66.2765 865.849 66.3709C865.292 66.4748 864.62 66.5203 863.832 66.5075C862.37 66.4879 861.1 66.2266 860.024 65.7236C858.958 65.2211 858.146 64.4849 857.589 63.5149C857.031 62.5449 856.795 61.3447 856.879 59.9143L857.988 38.7627ZM873.987 74.9506C873.22 74.9104 872.503 74.8111 871.836 74.6526C871.179 74.5041 870.637 74.3284 870.21 74.1255L871.812 69.6768C872.511 69.932 873.145 70.0839 873.712 70.1327C874.289 70.1819 874.794 70.0753 875.226 69.8129C875.667 69.551 876.038 69.0858 876.339 68.4174L876.743 67.512L870.088 44.6422L876.456 44.9759L880.136 61.2471L880.363 61.259L885.767 45.4639L892.178 45.7999L882.423 69.5487C881.954 70.7024 881.346 71.6968 880.599 72.5319C879.861 73.377 878.949 74.0086 877.863 74.4268C876.776 74.8545 875.484 75.0291 873.987 74.9506Z" fill="black"/>
<path d="M533.097 74.8379C535.489 73.456 547.279 71.0707 562.563 64.6981C567.972 62.4428 573.01 61.4492 578.019 60.5783C583.322 59.6562 593.091 68.4626 603.348 74.5475C610.256 78.6455 621.675 70.7992 632.322 69.0906C644.661 67.1107 657.715 75.6572 669.356 82.3189C680.913 88.9329 695.773 76.2011 710.051 77.3007C714.237 77.6231 717.163 81.0393 720.913 82.3917C739.418 89.0654 767.648 78.4493 783.452 79.0793C789.934 79.3377 794.439 82.4712 798.673 85.1523C810.007 92.3298 830.315 78.7191 842.589 79.3396C858.551 80.1467 863.822 88.0114 870.813 88.1964C874.933 87.857 880.214 86.6379 885.943 83.9236C891.672 81.2094 897.688 77.0369 903.886 72.738" stroke="#FF1519" stroke-width="1.67016" stroke-linecap="round"/>
</svg>
