<svg width="400" height="16" viewBox="0 0 400 16" fill="none" xmlns="http://www.w3.org/2000/svg">
<path d="M380.387 0.0118222C380.863 -0.0841293 381.536 0.434689 382.099 0.462019C384.454 0.581995 385.328 0.941639 387.459 1.14561C390.62 1.44859 400 0.766686 400 4.37114C400 4.3712 400 4.37126 400 4.37131C400 4.40667 399.999 4.44244 399.997 4.47863C399.964 5.1653 399.167 5.91493 399.048 6.69153C398.93 7.46841 399.019 12.4838 397.885 12.7658C396.242 13.1373 392.301 11.8513 391.425 11.9083C390.826 11.9476 390.088 12.4035 389.322 12.4845C386.852 12.7454 385.56 12.412 383.335 13.6505C382.445 12.9979 381.554 12.3452 380.664 11.6925C379.503 11.9951 377.743 11.1344 377.037 11.1818C376.459 11.2208 376.119 11.7369 375.516 11.7609C374.839 11.7907 373.8 11.2336 372.57 11.3175C370.552 11.4525 370.193 12.7989 368.982 12.9699C367.727 13.1468 365.775 12.415 364.173 12.8888C363.972 13.0369 363.771 13.185 363.57 13.3331C363.714 13.6681 363.858 14.0031 364.002 14.338C363.195 14.494 362.848 13.8075 362.107 13.7951C361.234 13.7801 360.789 14.4309 360.202 14.4279C359.721 14.4248 359.069 13.903 358.446 13.9357C357.537 13.9807 357.736 14.7342 357.247 14.8751C357.052 14.9299 353.443 15.3457 353.24 15.3517C351.691 15.3814 351.557 14.3501 350.322 14.2599C346.898 14.0139 343.383 14.8473 340.216 15.1622C338.802 15.3031 337.326 15.2432 335.916 15.0783C338.137 12.4388 333.222 10.3846 335.06 14.5148C333.491 13.9272 332.379 15.0422 330.892 14.8537C329.93 14.7307 329.264 14.158 327.89 14.173C325.453 14.2033 322.787 15.8311 322.086 12.8888C319.225 13.4075 316.746 12.3402 315.715 14.9376C314.977 15.0963 313.087 13.5492 312.259 13.339C311.477 13.141 305.472 12.4424 304.489 12.4035C303.507 12.3645 301.787 12.3221 300.96 12.5499C299.92 12.8319 299.194 15.5256 297.344 12.3761C295.192 12.631 294.425 12.5408 292.424 12.1749C292.062 12.1088 292.021 11.6412 291.809 11.6408C291.373 11.6408 290.631 11.9863 289.853 12.0285C288.573 12.0974 287.843 11.1136 287.985 12.6163C287.142 12.8683 286.298 13.1203 285.454 13.3722C285.158 13.0822 284.862 12.7921 284.566 12.5021C284.115 12.8182 283.664 13.1342 283.212 13.4503C283.742 11.2757 280.567 12.559 281.598 13.8068C279.962 13.3569 278.327 12.907 276.691 12.4572C276.919 9.98566 273.099 12.1719 273.421 13.5158C273.234 13.5138 273.046 13.5119 272.859 13.5099C271.221 12.853 269.716 13.3903 267.719 12.9494C265.721 12.5084 265.909 12.2678 265.302 11.131C264.832 11.1961 264.362 11.2612 263.892 11.3263C261.426 14.4428 261.861 9.04699 257.639 11.4376C256.289 9.47893 252.964 10.5078 250.758 11.1017C250.502 11.1707 250.497 11.5509 250.156 11.6681C249.32 11.95 247.188 11.4613 247.261 12.6876C246.523 12.3328 245.785 11.978 245.047 11.6232C244.444 11.8462 243.841 12.0691 243.237 12.2921C243.24 12.6749 243.243 13.0578 243.246 13.4406C242.032 12.1359 240.123 12.6373 239.182 12.3253C238.994 12.2621 238.954 11.734 238.371 11.59C237.691 11.419 236.422 11.5753 235.611 11.4103C235.296 11.9952 234.98 12.5802 234.665 13.1652C233.214 13.4825 232.705 11.9385 231.853 11.8185C231.699 11.7976 228.901 11.9086 228.751 11.9415C227.516 12.2028 227.866 13.5182 224.297 13.2365C223.661 13.1855 223.147 12.7303 222.572 12.712C221.557 12.6791 218.499 13.7113 218.259 14.6652C217.028 13.4714 213.734 13.9593 212.764 13.6144C212.471 13.5083 212.405 12.7479 211.505 12.5861C210.776 12.4541 208.896 13.063 207.971 12.9611C206.989 12.8501 206.638 12.2113 206.198 12.1661C205.782 12.1242 205.399 12.6398 204.832 12.6369C203.064 12.6189 201.462 11.7888 200.064 11.7736C198.042 11.7496 196.256 13.2763 194.565 13.9542C194.145 13.8553 193.732 13.5275 193.292 13.5245C187.847 13.4765 181.704 13.1952 176.242 12.8683C173.706 12.7181 167.401 10.6457 169.084 14.1037C168.203 14.7092 161.796 13.3151 160.577 13.2941C159.359 13.2733 158.393 13.8933 157.435 13.9025C154.546 13.9295 152.51 13.4827 148.993 14.0226C148.084 14.1638 147.111 14.8983 146.573 14.8898C145.925 14.8778 145.227 14.1673 144.388 14.1222C142.386 14.0202 138.657 14.2539 136.737 14.131C136.386 14.107 136.263 13.4832 135.762 13.2882C133.809 12.5264 131.621 12.5925 132.008 14.5841C129.506 13.4534 127.191 14.4848 124.872 14.548C119.968 14.677 111.036 14.2121 106.764 15.049C104.07 15.5769 104.139 16.4702 100.174 15.6994C99.2934 15.5284 98.417 15.2978 97.3493 15.0939C94.8466 14.614 92.5507 12.9638 90.6431 14.9523C87.8635 14.4366 85.6497 14.8023 83.5874 13.1017C83.3443 13.5096 83.1011 13.9175 82.858 14.3253C82.5172 14.3354 82.1765 14.3455 81.8357 14.3556C81.7294 13.9666 81.6231 13.5776 81.5168 13.1886C79.0755 13.0839 75.9782 14.6827 73.9118 14.671C70.447 14.653 61.5233 14.0319 58.2379 13.507C56.4937 13.2282 56.3999 14.0614 55.4013 12.3488C55.0112 12.4679 54.6211 12.587 54.2309 12.7062C53.9868 13.0812 53.7427 13.4562 53.4985 13.8312C51.2608 13.8462 48.6067 13.2637 46.4749 13.2697C42.5903 13.2817 36.7572 14.3138 32.8564 13.6359C31.8783 13.4649 30.6556 12.6916 29.6978 12.7003C28.3038 12.7123 27.965 13.9957 26.1959 14.0197C23.147 14.0587 17.4688 12.5678 14.587 12.6818C13.7311 12.7148 13.3317 13.1923 12.7407 13.2433C10.2624 13.4623 8.22772 13.4234 5.85133 14.1613C3.29972 12.9315 3.52014 11.3441 2.72938 9.74231C2.13009 8.5334 0.29248 5.73175 0.0316206 4.67297C-0.151617 3.92911 0.532533 2.97223 0.275762 2.15343C3.33282 1.49955 4.61715 2.21939 7.0995 3.37121C11.6838 3.32531 16.268 3.27941 20.8523 3.23351C21.2694 3.68045 21.6864 4.12739 22.1035 4.57433C22.1035 4.57531 22.1035 4.57629 22.1035 4.57726C23.864 5.09306 24.6102 3.94205 25.5596 3.68078C34.6494 1.17915 52.5401 3.1371 62.547 3.41906C64.7034 3.47903 71.718 2.87677 73.1977 3.60265C73.5807 3.7917 73.6873 4.48086 74.0949 4.51086C77.7361 4.10102 81.3774 3.69119 85.0187 3.28136C92.5065 4.35219 100.248 3.46782 107.792 3.30285C128.206 2.85592 148.415 2.31268 168.494 2.47765C172.374 2.51064 177.298 1.99431 181.097 2.32726C182.683 2.4653 183.343 3.57203 185.426 2.74718C185.448 3.04536 185.47 3.34354 185.492 3.64171C187.31 3.28174 188.471 2.60327 190.509 2.53429C192.225 2.4773 196.765 2.43302 198.282 2.54698C199.068 2.60397 198.775 3.16114 199.509 3.15831C200.764 3.14932 203.446 2.37904 205.179 2.37902C206.748 2.37902 209.394 3.02083 210.6 2.92785C214.945 2.59789 219.678 1.64651 224.309 1.90148C225.588 1.97361 227.233 2.69605 227.634 2.67589C228.416 2.63391 228.649 1.93213 229.175 1.8419C231.845 1.386 236.006 2.21995 238.623 2.25304C247.15 2.36102 256.184 2.05472 264.674 2.1837C270.039 2.26468 278.953 2.14118 283.905 2.66905C284.973 2.78304 284.688 3.55187 285.585 3.55187C286.579 3.5517 287.118 3.03233 287.583 2.99035C290.799 2.69638 297.899 2.17137 300.936 2.70226C301.514 2.80419 301.933 3.4066 302.28 3.40441C302.455 3.40441 302.851 2.9933 303.401 2.95128C308.26 2.57934 311.803 2.81909 316.564 2.96007C325.682 3.227 336.247 2.46219 345.825 2.87609C347.912 2.96607 349.344 4.15762 349.637 4.14562C350.281 4.12159 350.693 3.32015 351.998 3.12218C356.334 2.47148 362.175 3.32669 366.3 2.92492C368.338 2.72697 371.138 1.7096 373.143 1.48448C374.745 1.30453 378.528 1.70361 379.238 1.25694C379.669 0.987083 379.869 0.120329 380.387 0.0118222ZM326.427 13.504C326.712 12.1183 323.713 13.2699 324.838 14.0138C325.092 14.1813 326.353 13.8638 326.427 13.504ZM186.005 11.0978C186.032 11.4936 186.06 11.8895 186.087 12.2853C186.481 12.1206 186.874 11.9559 187.268 11.7911C187.047 11.5532 186.826 11.3152 186.604 11.0773C186.404 11.0841 186.204 11.0909 186.005 11.0978Z" fill="#FFF41D"/>
</svg>
